G04 PROTEUS GERBER X2 FILE*
%TF.GenerationSoftware,Labcenter,Proteus,8.15-SP1-Build34318*%
%TF.CreationDate,2023-09-22T14:49:31+00:00*%
%TF.FileFunction,Plated,1,2,PTH*%
%TF.FilePolarity,Positive*%
%TF.Part,Single*%
%TF.SameCoordinates,{cc55e535-ffdd-4919-8125-6210c26246c2}*%
%FSLAX45Y45*%
%MOMM*%
G01*
%TA.AperFunction,ViaDrill*%
%ADD60C,0.381000*%
%TA.AperFunction,ComponentDrill*%
%ADD61C,0.762000*%
%ADD62C,1.016000*%
%TA.AperFunction,ComponentDrill*%
%ADD63C,0.635000*%
%TA.AperFunction,ComponentDrill*%
%ADD64C,1.524000*%
%ADD65C,4.000000*%
%TA.AperFunction,ComponentDrill*%
%ADD66C,1.270000*%
%TD.AperFunction*%
D60*
X-3586211Y-3496276D03*
D61*
X-200000Y-1404000D03*
X-200000Y-1150000D03*
X-632000Y+748000D03*
X-378000Y+748000D03*
X-124000Y+748000D03*
X+130000Y+748000D03*
X+384000Y+748000D03*
X+638000Y+748000D03*
X+892000Y+748000D03*
X+1146000Y+748000D03*
X+1400000Y+748000D03*
X+1654000Y+748000D03*
X+1908000Y+748000D03*
X+2162000Y+748000D03*
X+2416000Y+748000D03*
X+2670000Y+748000D03*
X+2670000Y+1510000D03*
X+2416000Y+1510000D03*
X+2162000Y+1510000D03*
X+1908000Y+1510000D03*
X+1654000Y+1510000D03*
X+1400000Y+1510000D03*
X+1146000Y+1510000D03*
X+892000Y+1510000D03*
X+638000Y+1510000D03*
X+384000Y+1510000D03*
X+130000Y+1510000D03*
X-124000Y+1510000D03*
X-378000Y+1510000D03*
X-630000Y+1510000D03*
X+4510000Y-750000D03*
X+4764000Y-750000D03*
X+4586000Y+950000D03*
X+4840000Y+950000D03*
X+4586000Y+400000D03*
X+4840000Y+400000D03*
X+4586000Y-200000D03*
X+4840000Y-200000D03*
X+4590000Y+1550000D03*
X+4844000Y+1550000D03*
X+4590000Y+2120000D03*
X+4844000Y+2120000D03*
X+4590000Y+2700000D03*
X+4844000Y+2700000D03*
X+4584000Y+3350000D03*
X+4838000Y+3350000D03*
X+3054000Y-500000D03*
X+4070000Y-500000D03*
X+3054000Y-100000D03*
X+4070000Y-100000D03*
X+3054000Y+350000D03*
X+4070000Y+350000D03*
X+4074000Y+1500000D03*
X+3058000Y+1500000D03*
X+3038000Y+2000000D03*
X+4054000Y+2000000D03*
X+3054000Y+2550000D03*
X+4070000Y+2550000D03*
X+3054000Y+2900000D03*
X+4070000Y+2900000D03*
X+3054000Y+900000D03*
X+4070000Y+900000D03*
X+1300000Y-850000D03*
X+1300000Y+166000D03*
X-800000Y-800000D03*
X-800000Y+216000D03*
X-200000Y-800000D03*
X-200000Y+216000D03*
X+100000Y-800000D03*
X+100000Y+216000D03*
X+280000Y+2884701D03*
X+280000Y+1868701D03*
X+700000Y-816000D03*
X+700000Y+200000D03*
X-1400000Y-816000D03*
X-1400000Y+200000D03*
X+660000Y+2886000D03*
X+660000Y+1870000D03*
D62*
X+1600000Y-816000D03*
X+1600000Y+200000D03*
X-1100000Y-776000D03*
X-1100000Y+240000D03*
D61*
X-500000Y+200000D03*
X-500000Y-816000D03*
D62*
X+400000Y-816000D03*
X+400000Y+200000D03*
D61*
X-10000Y+1870000D03*
X-10000Y+2886000D03*
X+1000000Y+200000D03*
X+1000000Y-816000D03*
X-1700000Y+200000D03*
X-1700000Y-816000D03*
X+1070000Y+1850000D03*
X+1070000Y+2866000D03*
D62*
X+66000Y-1700000D03*
X-950000Y-1700000D03*
X-1250000Y-2100000D03*
X-234000Y-2100000D03*
D61*
X-84000Y-3330000D03*
X-1100000Y-3330000D03*
X-84000Y-3600000D03*
X-1100000Y-3600000D03*
X-700000Y-2650000D03*
X-446000Y-2650000D03*
X+300000Y-1500000D03*
X+300000Y-2516000D03*
X-1240000Y-1530000D03*
X-1494000Y-1530000D03*
D62*
X+1216000Y-1200000D03*
X+200000Y-1200000D03*
D61*
X+196000Y-2900000D03*
X+450000Y-2900000D03*
X+32699Y-2050000D03*
X+32699Y-2304000D03*
X-1638000Y+1202000D03*
X-1638000Y+1456000D03*
X-1638000Y+1710000D03*
X-1638000Y+1964000D03*
X-1638000Y+2218000D03*
X-1638000Y+2472000D03*
X-1638000Y+2726000D03*
X-2400000Y+2726000D03*
X-2400000Y+2472000D03*
X-2400000Y+2218000D03*
X-2400000Y+1964000D03*
X-2400000Y+1710000D03*
X-2400000Y+1456000D03*
X-2400000Y+1202000D03*
D62*
X+1492000Y+1828000D03*
X+1492000Y+2844000D03*
X+1920000Y+4420000D03*
X+1920000Y+3404000D03*
D61*
X+1470000Y+3414000D03*
X+1470000Y+3160000D03*
X+2026000Y+2800000D03*
X+2280000Y+2800000D03*
X+2534000Y+2800000D03*
X+2894000Y+3354000D03*
X+2894000Y+3100000D03*
X+2400000Y+3300000D03*
X+2400000Y+3554000D03*
X-3136000Y-1350000D03*
X-2120000Y-1350000D03*
D63*
X-2150000Y-3023000D03*
X-2277000Y-3150000D03*
X-2150000Y-3277000D03*
D61*
X-2158701Y-1660000D03*
X-3174701Y-1660000D03*
D62*
X-1750000Y-2890000D03*
X-1496000Y-2890000D03*
X-1242000Y-2890000D03*
D61*
X-2190000Y-980000D03*
X-3206000Y-980000D03*
D64*
X+2860788Y-3813668D03*
X+1773668Y-3813668D03*
D65*
X+2317228Y-5126848D03*
X+2317228Y-2129648D03*
D61*
X+116000Y-4050000D03*
X-900000Y-4050000D03*
D62*
X+66000Y-4450000D03*
X-950000Y-4450000D03*
D64*
X-3990000Y-2800000D03*
X-3990000Y-2299620D03*
X-3990000Y-1799240D03*
D63*
X-1910000Y-3994000D03*
X-1783000Y-3867000D03*
X-1910000Y-3740000D03*
D61*
X-800000Y-5100000D03*
X+216000Y-5100000D03*
D62*
X-2700000Y-4004000D03*
X-2700000Y-3750000D03*
X-2700000Y-3496000D03*
D61*
X-1050000Y-5450000D03*
X+220000Y-5450000D03*
D62*
X-2280000Y-360000D03*
X-3296000Y-360000D03*
D61*
X-1400000Y+1350000D03*
X-1400000Y+1096000D03*
X-591600Y+2877600D03*
X-591600Y+1861600D03*
X-1754000Y+3350000D03*
X-1500000Y+3350000D03*
X-1246000Y+3350000D03*
D66*
X-3250000Y+1010000D03*
X-3250000Y+3260000D03*
D62*
X-4520000Y+3844000D03*
X-4520000Y+4098000D03*
D61*
X-2304000Y+70000D03*
X-2050000Y+70000D03*
X-840000Y+2876000D03*
X-840000Y+1860000D03*
D62*
X+4564000Y+3900000D03*
X+4818000Y+3900000D03*
D63*
X+4037000Y+3343000D03*
X+4164000Y+3470000D03*
X+4037000Y+3597000D03*
D61*
X-340000Y+1870000D03*
X-340000Y+2886000D03*
D64*
X+3730000Y-1618000D03*
X+3730000Y-1110000D03*
D62*
X-6975000Y+455000D03*
X-6975000Y+709000D03*
D61*
X-6325000Y+2715000D03*
X-5309000Y+2715000D03*
X-5309000Y+1975000D03*
X-6325000Y+1975000D03*
X-5345000Y+2455000D03*
X-6361000Y+2455000D03*
X-6775000Y+2445000D03*
X-6775000Y+1429000D03*
X-5847000Y+1143000D03*
X-5847000Y+889000D03*
X-5847000Y+635000D03*
X-5085000Y+635000D03*
X-5085000Y+889000D03*
X-5085000Y+1143000D03*
D64*
X-5674116Y-3916148D03*
X-6761236Y-3916148D03*
D65*
X-6217676Y-5229328D03*
X-6217676Y-2232128D03*
M02*
