G04 PROTEUS GERBER X2 FILE*
%TF.GenerationSoftware,Labcenter,Proteus,8.15-SP1-Build34318*%
%TF.CreationDate,2023-09-22T14:49:31+00:00*%
%TF.FileFunction,Copper,L2,Bot*%
%TF.FilePolarity,Positive*%
%TF.Part,Single*%
%TF.SameCoordinates,{cc55e535-ffdd-4919-8125-6210c26246c2}*%
%FSLAX45Y45*%
%MOMM*%
G01*
%TA.AperFunction,Conductor*%
%ADD10C,1.016000*%
%ADD11C,2.540000*%
%TA.AperFunction,ViaPad*%
%ADD12C,0.762000*%
%TA.AperFunction,ComponentPad*%
%ADD13C,2.032000*%
%TA.AperFunction,ComponentPad*%
%ADD14R,1.270000X1.270000*%
%ADD15C,1.270000*%
%AMDIL006*
4,1,8,
-0.762000,0.965200,-0.457200,1.270000,0.457200,1.270000,0.762000,0.965200,0.762000,-0.965200,
0.457200,-1.270000,-0.457200,-1.270000,-0.762000,-0.965200,-0.762000,0.965200,
0*%
%TA.AperFunction,ComponentPad*%
%ADD16DIL006*%
%ADD17C,1.778000*%
%ADD18C,2.286000*%
%TA.AperFunction,ComponentPad*%
%ADD19R,2.032000X2.032000*%
%TA.AperFunction,ComponentPad*%
%ADD70C,2.540000*%
%ADD71C,6.350000*%
%TA.AperFunction,ComponentPad*%
%ADD20C,3.048000*%
%TA.AperFunction,ComponentPad*%
%ADD21C,3.810000*%
%TA.AperFunction,Profile*%
%ADD22C,0.101600*%
%TD.AperFunction*%
%TA.AperFunction,Conductor*%
G36*
X+5362520Y-6250000D02*
X-8132520Y-6250000D01*
X-8132520Y+5142520D01*
X+5362520Y+5142520D01*
X+5362520Y-6250000D01*
G37*
%TD.AperFunction*%
%LPC*%
G36*
X+627564Y+4527564D02*
X+939399Y+4215729D01*
X+939399Y+3076647D01*
X+970051Y+3107299D01*
X+1169949Y+3107299D01*
X+1216001Y+3061247D01*
X+1216001Y+3265210D01*
X+1237791Y+3287000D01*
X+1216001Y+3308790D01*
X+1216001Y+3519210D01*
X+1364790Y+3667999D01*
X+1575210Y+3667999D01*
X+1636010Y+3607199D01*
X+1746030Y+3607199D01*
X+1809530Y+3670699D01*
X+2030470Y+3670699D01*
X+2146001Y+3555168D01*
X+2146001Y+3659210D01*
X+2294790Y+3807999D01*
X+2505210Y+3807999D01*
X+2653999Y+3659210D01*
X+2653999Y+3455247D01*
X+2794051Y+3595299D01*
X+2993949Y+3595299D01*
X+3135299Y+3453949D01*
X+3135299Y+3254051D01*
X+3108248Y+3227000D01*
X+3135299Y+3199949D01*
X+3135299Y+3141299D01*
X+3153949Y+3141299D01*
X+3295299Y+2999949D01*
X+3295299Y+2800051D01*
X+3220248Y+2725000D01*
X+3295299Y+2649949D01*
X+3295299Y+2450051D01*
X+3153949Y+2308701D01*
X+3100067Y+2308701D01*
X+3032665Y+2241299D01*
X+3137949Y+2241299D01*
X+3279299Y+2099949D01*
X+3279299Y+1900051D01*
X+3137949Y+1758701D01*
X+2952067Y+1758701D01*
X+2906565Y+1713199D01*
X+2929951Y+1713199D01*
X+2958051Y+1741299D01*
X+3157949Y+1741299D01*
X+3299299Y+1599949D01*
X+3299299Y+1400051D01*
X+3157949Y+1258701D01*
X+3011264Y+1258701D01*
X+3010323Y+1258311D01*
X+3009933Y+1258701D01*
X+2958051Y+1258701D01*
X+2909951Y+1306801D01*
X+2772128Y+1306801D01*
X+2759428Y+1294101D01*
X+2580572Y+1294101D01*
X+2543000Y+1331673D01*
X+2505428Y+1294101D01*
X+2326572Y+1294101D01*
X+2289000Y+1331673D01*
X+2251428Y+1294101D01*
X+2072572Y+1294101D01*
X+2035000Y+1331673D01*
X+1997428Y+1294101D01*
X+1818572Y+1294101D01*
X+1781000Y+1331673D01*
X+1743428Y+1294101D01*
X+1564572Y+1294101D01*
X+1527000Y+1331673D01*
X+1516039Y+1320712D01*
X+1857199Y+979552D01*
X+1857199Y+963899D01*
X+1997428Y+963899D01*
X+2035000Y+926327D01*
X+2072572Y+963899D01*
X+2251428Y+963899D01*
X+2289000Y+926327D01*
X+2326572Y+963899D01*
X+2466801Y+963899D01*
X+2466801Y+982167D01*
X+2585833Y+1101199D01*
X+2913951Y+1101199D01*
X+2954051Y+1141299D01*
X+3153949Y+1141299D01*
X+3295299Y+999949D01*
X+3295299Y+800051D01*
X+3153949Y+658701D01*
X+2954051Y+658701D01*
X+2917951Y+694801D01*
X+2885899Y+694801D01*
X+2885899Y+658572D01*
X+2839346Y+612019D01*
X+2900167Y+551199D01*
X+2913951Y+551199D01*
X+2954051Y+591299D01*
X+3153949Y+591299D01*
X+3295299Y+449949D01*
X+3295299Y+250051D01*
X+3170248Y+125000D01*
X+3295299Y-51D01*
X+3295299Y-199949D01*
X+3219307Y-275941D01*
X+3247889Y-304523D01*
X+3247889Y-352641D01*
X+3295299Y-400051D01*
X+3295299Y-599949D01*
X+3153949Y-741299D01*
X+2954051Y-741299D01*
X+2812701Y-599949D01*
X+2812701Y-444068D01*
X+1836533Y+532101D01*
X+1818572Y+532101D01*
X+1781000Y+569673D01*
X+1743428Y+532101D01*
X+1603199Y+532101D01*
X+1603199Y+466699D01*
X+1710470Y+466699D01*
X+1866699Y+310470D01*
X+1866699Y+89530D01*
X+1710470Y-66699D01*
X+1489530Y-66699D01*
X+1449039Y-26209D01*
X+1399949Y-75299D01*
X+1200051Y-75299D01*
X+1133000Y-8248D01*
X+1099949Y-41299D01*
X+900051Y-41299D01*
X+861951Y-3199D01*
X+838049Y-3199D01*
X+799949Y-41299D01*
X+600051Y-41299D01*
X+567960Y-9209D01*
X+510470Y-66699D01*
X+289530Y-66699D01*
X+224039Y-1209D01*
X+199949Y-25299D01*
X+196665Y-25299D01*
X+746067Y-574701D01*
X+799949Y-574701D01*
X+850000Y-624752D01*
X+900051Y-574701D01*
X+1099949Y-574701D01*
X+1167000Y-641752D01*
X+1200051Y-608701D01*
X+1399949Y-608701D01*
X+1415039Y-623792D01*
X+1489530Y-549301D01*
X+1710470Y-549301D01*
X+1866699Y-705530D01*
X+1866699Y-926470D01*
X+1710470Y-1082699D01*
X+1489530Y-1082699D01*
X+1449039Y-1042209D01*
X+1442208Y-1049040D01*
X+1482699Y-1089530D01*
X+1482699Y-1310470D01*
X+1326470Y-1466699D01*
X+1105530Y-1466699D01*
X+984923Y-1346092D01*
X+984923Y-3229779D01*
X+482867Y-3731835D01*
X+482867Y-4134167D01*
X+363835Y-4253199D01*
X+254049Y-4253199D01*
X+250208Y-4257040D01*
X+332699Y-4339530D01*
X+332699Y-4560470D01*
X+176470Y-4716699D01*
X-44470Y-4716699D01*
X-200699Y-4560470D01*
X-200699Y-4339530D01*
X-68209Y-4207040D01*
X-125299Y-4149949D01*
X-125299Y-3950051D01*
X-16547Y-3841299D01*
X-183949Y-3841299D01*
X-325299Y-3699949D01*
X-325299Y-3500051D01*
X-290248Y-3465000D01*
X-325299Y-3429949D01*
X-325299Y-3230051D01*
X-287199Y-3191951D01*
X-287199Y-2853199D01*
X-289990Y-2853199D01*
X-340790Y-2903999D01*
X-551210Y-2903999D01*
X-573000Y-2882209D01*
X-594790Y-2903999D01*
X-805210Y-2903999D01*
X-953999Y-2755210D01*
X-953999Y-2544790D01*
X-805210Y-2396001D01*
X-594790Y-2396001D01*
X-573000Y-2417791D01*
X-551210Y-2396001D01*
X-437199Y-2396001D01*
X-437199Y-2273970D01*
X-500699Y-2210470D01*
X-500699Y-1989530D01*
X-344470Y-1833301D01*
X-177868Y-1833301D01*
X-200699Y-1810470D01*
X-200699Y-1657999D01*
X-305210Y-1657999D01*
X-453999Y-1509210D01*
X-453999Y-1298790D01*
X-432209Y-1277000D01*
X-453999Y-1255210D01*
X-453999Y-1057299D01*
X-520601Y-1057299D01*
X-520601Y-1078317D01*
X-513391Y-1085527D01*
X-513391Y-1316985D01*
X-670601Y-1474195D01*
X-670601Y-1815731D01*
X-834269Y-1979399D01*
X-834271Y-1979399D01*
X-844271Y-1989399D01*
X-970601Y-1989399D01*
X-970601Y-2215731D01*
X-1134269Y-2379399D01*
X-1250739Y-2379399D01*
X-1038801Y-2591337D01*
X-1038801Y-2636001D01*
X-988001Y-2636001D01*
X-988001Y-3100751D01*
X-858701Y-3230051D01*
X-858701Y-3429949D01*
X-893752Y-3465000D01*
X-858701Y-3500051D01*
X-858701Y-3699949D01*
X-905693Y-3746941D01*
X-843933Y-3808701D01*
X-800051Y-3808701D01*
X-658701Y-3950051D01*
X-658701Y-4149949D01*
X-765792Y-4257040D01*
X-683301Y-4339530D01*
X-683301Y-4560470D01*
X-839530Y-4716699D01*
X-1060470Y-4716699D01*
X-1216699Y-4560470D01*
X-1216699Y-4339530D01*
X-1084209Y-4207040D01*
X-1141299Y-4149949D01*
X-1141299Y-4086067D01*
X-1157167Y-4070199D01*
X-1680872Y-4070199D01*
X-1693572Y-4082899D01*
X-1694101Y-4082899D01*
X-1694101Y-4083428D01*
X-1706801Y-4096128D01*
X-1706801Y-4365833D01*
X-1175833Y-4896801D01*
X-938049Y-4896801D01*
X-899949Y-4858701D01*
X-700051Y-4858701D01*
X-558701Y-5000051D01*
X-558701Y-5199949D01*
X-700051Y-5341299D01*
X-817453Y-5341299D01*
X-808701Y-5350051D01*
X-808701Y-5549949D01*
X-950051Y-5691299D01*
X-1149949Y-5691299D01*
X-1291299Y-5549949D01*
X-1291299Y-5350051D01*
X-1244447Y-5303199D01*
X-1344168Y-5303199D01*
X-1463199Y-5184167D01*
X-2113199Y-4534167D01*
X-2113199Y-4207199D01*
X-2446001Y-4207199D01*
X-2446001Y-4257999D01*
X-2953999Y-4257999D01*
X-2953999Y-4130368D01*
X-3003199Y-4081168D01*
X-3003199Y-3953199D01*
X-3254167Y-3953199D01*
X-3373199Y-3834167D01*
X-3373199Y-2703407D01*
X-3685201Y-2391405D01*
X-3685201Y-2425872D01*
X-3809139Y-2549810D01*
X-3685201Y-2673748D01*
X-3685201Y-2926252D01*
X-3863748Y-3104799D01*
X-4116252Y-3104799D01*
X-4294799Y-2926252D01*
X-4294799Y-2673748D01*
X-4170861Y-2549810D01*
X-4294799Y-2425872D01*
X-4294799Y-2173368D01*
X-4200070Y-2078639D01*
X-5669059Y-2078639D01*
X-5747777Y-2157357D01*
X-5747777Y-2426767D01*
X-6023037Y-2702027D01*
X-6412315Y-2702027D01*
X-6687575Y-2426767D01*
X-6687575Y-2037489D01*
X-6412315Y-1762229D01*
X-6142905Y-1762229D01*
X-5900517Y-1519841D01*
X-4269399Y-1519841D01*
X-4269399Y-938271D01*
X-3691128Y-360000D01*
X-3869399Y-181729D01*
X-3869399Y+4145729D01*
X-3405729Y+4609399D01*
X+545729Y+4609399D01*
X+627564Y+4527564D01*
G37*
G36*
X+5068599Y+670601D02*
X+5068599Y+120601D01*
X+4357401Y+120601D01*
X+4357401Y+196801D01*
X+4258049Y+196801D01*
X+4186248Y+125000D01*
X+4308049Y+3199D01*
X+4357401Y+3199D01*
X+4357401Y+79399D01*
X+5068599Y+79399D01*
X+5068599Y-479399D01*
X+4992599Y-479399D01*
X+4992599Y-1029399D01*
X+4281401Y-1029399D01*
X+4281401Y-912767D01*
X+4109933Y-741299D01*
X+3970051Y-741299D01*
X+3828701Y-599949D01*
X+3828701Y-400051D01*
X+3928752Y-300000D01*
X+3828701Y-199949D01*
X+3828701Y-51D01*
X+3866801Y+38049D01*
X+3866801Y+85773D01*
X+3948270Y+119518D01*
X+3953752Y+125000D01*
X+3828701Y+250051D01*
X+3828701Y+449949D01*
X+3970051Y+591299D01*
X+3973933Y+591299D01*
X+3985833Y+603199D01*
X+4357401Y+603199D01*
X+4357401Y+746801D01*
X+4258049Y+746801D01*
X+4169949Y+658701D01*
X+3970051Y+658701D01*
X+3828701Y+800051D01*
X+3828701Y+999949D01*
X+3970051Y+1141299D01*
X+3973933Y+1141299D01*
X+3985833Y+1153199D01*
X+4357401Y+1153199D01*
X+4357401Y+1229399D01*
X+5068599Y+1229399D01*
X+5068599Y+670601D01*
G37*
G36*
X+5072599Y+1270601D02*
X+4361401Y+1270601D01*
X+4361401Y+1346801D01*
X+4262049Y+1346801D01*
X+4173949Y+1258701D01*
X+3974051Y+1258701D01*
X+3832701Y+1400051D01*
X+3832701Y+1599949D01*
X+3974051Y+1741299D01*
X+3977933Y+1741299D01*
X+3989833Y+1753199D01*
X+4361401Y+1753199D01*
X+4361401Y+1829399D01*
X+5072599Y+1829399D01*
X+5072599Y+1270601D01*
G37*
G36*
X+2093970Y+4623199D02*
X+4128167Y+4623199D01*
X+4597366Y+4153999D01*
X+5071999Y+4153999D01*
X+5071999Y+3646001D01*
X+4910633Y+3646001D01*
X+4894031Y+3629399D01*
X+5066599Y+3629399D01*
X+5066599Y+3070601D01*
X+4591967Y+3070601D01*
X+4500765Y+2979399D01*
X+5072599Y+2979399D01*
X+5072599Y+2420601D01*
X+4697967Y+2420601D01*
X+4676765Y+2399399D01*
X+5072599Y+2399399D01*
X+5072599Y+1840601D01*
X+4361401Y+1840601D01*
X+4361401Y+1916801D01*
X+4295299Y+1916801D01*
X+4295299Y+1900051D01*
X+4153949Y+1758701D01*
X+3954051Y+1758701D01*
X+3812701Y+1900051D01*
X+3812701Y+2099949D01*
X+3850802Y+2138050D01*
X+3850802Y+2204168D01*
X+3962693Y+2316059D01*
X+3828701Y+2450051D01*
X+3828701Y+2649949D01*
X+3903752Y+2725000D01*
X+3828701Y+2800051D01*
X+3828701Y+2999949D01*
X+3955853Y+3127101D01*
X+3947572Y+3127101D01*
X+3821101Y+3253572D01*
X+3821101Y+3432428D01*
X+3858673Y+3470000D01*
X+3821101Y+3507572D01*
X+3821101Y+3686428D01*
X+3947572Y+3812899D01*
X+3965533Y+3812899D01*
X+3968428Y+3815794D01*
X+4310001Y+3815794D01*
X+4310001Y+3866633D01*
X+3959833Y+4216801D01*
X+2093970Y+4216801D01*
X+2030470Y+4153301D01*
X+1809530Y+4153301D01*
X+1653301Y+4309530D01*
X+1653301Y+4530470D01*
X+1809530Y+4686699D01*
X+2030470Y+4686699D01*
X+2093970Y+4623199D01*
G37*
G36*
X+3140187Y-3697937D02*
X+3140187Y-3929399D01*
X+2976519Y-4093067D01*
X+2745057Y-4093067D01*
X+2581389Y-3929399D01*
X+2581389Y-3697937D01*
X+2745057Y-3534269D01*
X+2976519Y-3534269D01*
X+3140187Y-3697937D01*
G37*
G36*
X+2053067Y-3697937D02*
X+2053067Y-3929399D01*
X+1889399Y-4093067D01*
X+1657937Y-4093067D01*
X+1494269Y-3929399D01*
X+1494269Y-3697937D01*
X+1657937Y-3534269D01*
X+1889399Y-3534269D01*
X+2053067Y-3697937D01*
G37*
G36*
X+2787127Y-4932209D02*
X+2787127Y-5321487D01*
X+2511867Y-5596747D01*
X+2122589Y-5596747D01*
X+1847329Y-5321487D01*
X+1847329Y-4932209D01*
X+2122589Y-4656949D01*
X+2511867Y-4656949D01*
X+2787127Y-4932209D01*
G37*
G36*
X+2787127Y-1935009D02*
X+2787127Y-2324287D01*
X+2511867Y-2599547D01*
X+2122589Y-2599547D01*
X+1847329Y-2324287D01*
X+1847329Y-1935009D01*
X+2122589Y-1659749D01*
X+2511867Y-1659749D01*
X+2787127Y-1935009D01*
G37*
G36*
X+457299Y-5000051D02*
X+457299Y-5199949D01*
X+384248Y-5273000D01*
X+461299Y-5350051D01*
X+461299Y-5549949D01*
X+319949Y-5691299D01*
X+120051Y-5691299D01*
X-21299Y-5549949D01*
X-21299Y-5350051D01*
X+51752Y-5277000D01*
X-25299Y-5199949D01*
X-25299Y-5000051D01*
X+116051Y-4858701D01*
X+315949Y-4858701D01*
X+457299Y-5000051D01*
G37*
G36*
X-4266001Y+4203210D02*
X-4266001Y+3992790D01*
X-4287791Y+3971000D01*
X-4266001Y+3949210D01*
X-4266001Y+3738790D01*
X-4414790Y+3590001D01*
X-4625210Y+3590001D01*
X-4773999Y+3738790D01*
X-4773999Y+3949210D01*
X-4752209Y+3971000D01*
X-4773999Y+3992790D01*
X-4773999Y+4203210D01*
X-4625210Y+4351999D01*
X-4414790Y+4351999D01*
X-4266001Y+4203210D01*
G37*
G36*
X+4072899Y-967967D02*
X+4072899Y-1252033D01*
X+3960932Y-1364000D01*
X+4072899Y-1475967D01*
X+4072899Y-1760033D01*
X+3872033Y-1960899D01*
X+3587967Y-1960899D01*
X+3387101Y-1760033D01*
X+3387101Y-1475967D01*
X+3499068Y-1364000D01*
X+3387101Y-1252033D01*
X+3387101Y-967967D01*
X+3587967Y-767101D01*
X+3872033Y-767101D01*
X+4072899Y-967967D01*
G37*
G36*
X-5067701Y+2814949D02*
X-5067701Y+2699140D01*
X-4971801Y+2603240D01*
X-4971801Y+2024833D01*
X-5067701Y+1928933D01*
X-5067701Y+1875051D01*
X-5209051Y+1733701D01*
X-5408949Y+1733701D01*
X-5550299Y+1875051D01*
X-5550299Y+2074949D01*
X-5411547Y+2213701D01*
X-5444949Y+2213701D01*
X-5483049Y+2251801D01*
X-5760833Y+2251801D01*
X-6083701Y+1928933D01*
X-6083701Y+1875051D01*
X-6225051Y+1733701D01*
X-6424949Y+1733701D01*
X-6566299Y+1875051D01*
X-6566299Y+2074949D01*
X-6427547Y+2213701D01*
X-6460949Y+2213701D01*
X-6489049Y+2241801D01*
X-6636951Y+2241801D01*
X-6675051Y+2203701D01*
X-6874949Y+2203701D01*
X-6895572Y+2224324D01*
X-6895572Y+1649676D01*
X-6874949Y+1670299D01*
X-6675051Y+1670299D01*
X-6533701Y+1528949D01*
X-6533701Y+1475067D01*
X-6404833Y+1346199D01*
X-6062899Y+1346199D01*
X-6062899Y+1358899D01*
X-5631101Y+1358899D01*
X-5631101Y+799572D01*
X-5668674Y+761999D01*
X-5631101Y+724428D01*
X-5631101Y+545572D01*
X-5757572Y+419101D01*
X-5936428Y+419101D01*
X-5982981Y+465653D01*
X-6196833Y+251801D01*
X-6818990Y+251801D01*
X-6869790Y+201001D01*
X-7080210Y+201001D01*
X-7228999Y+349790D01*
X-7228999Y+560210D01*
X-7207209Y+582000D01*
X-7228999Y+603790D01*
X-7228999Y+675632D01*
X-7301970Y+748604D01*
X-7301970Y+2577112D01*
X-6960883Y+2918199D01*
X-6463049Y+2918199D01*
X-6424949Y+2956299D01*
X-6225051Y+2956299D01*
X-6083701Y+2814949D01*
X-6083701Y+2615051D01*
X-6131753Y+2566999D01*
X-6119701Y+2554949D01*
X-6119701Y+2540142D01*
X-6093488Y+2493878D01*
X-5929167Y+2658199D01*
X-5550299Y+2658199D01*
X-5550299Y+2814949D01*
X-5408949Y+2956299D01*
X-5209051Y+2956299D01*
X-5067701Y+2814949D01*
G37*
G36*
X-4869101Y+1232428D02*
X-4869101Y+1053572D01*
X-4906673Y+1016000D01*
X-4869101Y+978428D01*
X-4869101Y+799572D01*
X-4906673Y+762000D01*
X-4869101Y+724428D01*
X-4869101Y+545572D01*
X-4995572Y+419101D01*
X-5174428Y+419101D01*
X-5300899Y+545572D01*
X-5300899Y+724428D01*
X-5263327Y+762000D01*
X-5300899Y+799572D01*
X-5300899Y+978428D01*
X-5263327Y+1016000D01*
X-5300899Y+1053572D01*
X-5300899Y+1232428D01*
X-5174428Y+1358899D01*
X-4995572Y+1358899D01*
X-4869101Y+1232428D01*
G37*
G36*
X-3383012Y-3412108D02*
X-3383012Y-3580444D01*
X-3502043Y-3699475D01*
X-3661024Y-3699475D01*
X-4290456Y-4328907D01*
X-6635843Y-4328907D01*
X-6769203Y-4195547D01*
X-6876967Y-4195547D01*
X-7040635Y-4031879D01*
X-7040635Y-3800417D01*
X-6876967Y-3636749D01*
X-6645505Y-3636749D01*
X-6481837Y-3800417D01*
X-6481837Y-3908181D01*
X-6467509Y-3922509D01*
X-5953515Y-3922509D01*
X-5953515Y-3800417D01*
X-5789847Y-3636749D01*
X-5558385Y-3636749D01*
X-5394717Y-3800417D01*
X-5394717Y-3922509D01*
X-4458790Y-3922509D01*
X-3829358Y-3293077D01*
X-3502043Y-3293077D01*
X-3383012Y-3412108D01*
G37*
G36*
X-5747777Y-5034689D02*
X-5747777Y-5423967D01*
X-6023037Y-5699227D01*
X-6412315Y-5699227D01*
X-6687575Y-5423967D01*
X-6687575Y-5034689D01*
X-6412315Y-4759429D01*
X-6023037Y-4759429D01*
X-5747777Y-5034689D01*
G37*
%LPD*%
%TA.AperFunction,Conductor*%
G36*
X+970051Y+2624701D02*
X+1169949Y+2624701D01*
X+1252039Y+2706791D01*
X+1381530Y+2577301D01*
X+1602470Y+2577301D01*
X+1665970Y+2640801D01*
X+1775001Y+2640801D01*
X+1797401Y+2618401D01*
X+1797401Y+2520601D01*
X+1897235Y+2520601D01*
X+1492000Y+2115366D01*
X+1337236Y+2270130D01*
X-717236Y+2270130D01*
X-886067Y+2101299D01*
X-939949Y+2101299D01*
X-1081299Y+1959949D01*
X-1081299Y+1790799D01*
X-1422101Y+1790799D01*
X-1422101Y+1799428D01*
X-1459673Y+1837000D01*
X-1422101Y+1874572D01*
X-1422101Y+2053428D01*
X-1434802Y+2066128D01*
X-1434802Y+2115871D01*
X-1422101Y+2128572D01*
X-1422101Y+2307428D01*
X-1434802Y+2320129D01*
X-1434802Y+2369871D01*
X-1422101Y+2382572D01*
X-1422101Y+2432333D01*
X-1398167Y+2408401D01*
X-773433Y+2408401D01*
X-545533Y+2636301D01*
X-491651Y+2636301D01*
X-461600Y+2666352D01*
X-439949Y+2644701D01*
X-240051Y+2644701D01*
X-175000Y+2709752D01*
X-109949Y+2644701D01*
X+89949Y+2644701D01*
X+134350Y+2689102D01*
X+180051Y+2643402D01*
X+379949Y+2643402D01*
X+443708Y+2707161D01*
X+544269Y+2606601D01*
X+775731Y+2606601D01*
X+881941Y+2712811D01*
X+970051Y+2624701D01*
G37*
%TD.AperFunction*%
%TA.AperFunction,Conductor*%
G36*
X+1196801Y+404049D02*
X+1166999Y+374247D01*
X+1099949Y+441299D01*
X+1095199Y+441299D01*
X+1095199Y+532101D01*
X+1196801Y+532101D01*
X+1196801Y+404049D01*
G37*
%TD.AperFunction*%
%TA.AperFunction,Conductor*%
G36*
X-2007999Y+3244790D02*
X-1859210Y+3096001D01*
X-1703199Y+3096001D01*
X-1703199Y+2941899D01*
X-1727428Y+2941899D01*
X-1853899Y+2815428D01*
X-1853899Y+2636572D01*
X-1816327Y+2599000D01*
X-1853899Y+2561428D01*
X-1853899Y+2382572D01*
X-1841199Y+2369872D01*
X-1841199Y+2320128D01*
X-1853899Y+2307428D01*
X-1853899Y+2128572D01*
X-1841199Y+2115872D01*
X-1841199Y+2066128D01*
X-1853899Y+2053428D01*
X-1853899Y+1874572D01*
X-1816328Y+1836999D01*
X-1853899Y+1799428D01*
X-1853899Y+1620572D01*
X-1816327Y+1583000D01*
X-1853899Y+1545428D01*
X-1853899Y+986101D01*
X-1709467Y+986101D01*
X-1616167Y+892801D01*
X-1574565Y+892801D01*
X-2180059Y+287307D01*
X-2204051Y+311299D01*
X-2294173Y+311299D01*
X-2294173Y+808461D01*
X-2052434Y+1050200D01*
X-2052434Y+1903800D01*
X-2184101Y+2035467D01*
X-2184101Y+2053428D01*
X-2221674Y+2090999D01*
X-2184101Y+2128572D01*
X-2184101Y+2307428D01*
X-2221673Y+2345000D01*
X-2184101Y+2382572D01*
X-2184101Y+2561428D01*
X-2221673Y+2599000D01*
X-2184101Y+2636572D01*
X-2184101Y+2815428D01*
X-2310572Y+2941899D01*
X-2330734Y+2941899D01*
X-2007999Y+3264634D01*
X-2007999Y+3244790D01*
G37*
%TD.AperFunction*%
%TA.AperFunction,Conductor*%
G36*
X-2533431Y-236262D02*
X-2546699Y-249530D01*
X-2546699Y-470470D01*
X-2390470Y-626699D01*
X-2169530Y-626699D01*
X-2013301Y-470470D01*
X-2013301Y-333199D01*
X-70168Y-333199D01*
X+155334Y-558701D01*
X+51Y-558701D01*
X-38049Y-596801D01*
X-61951Y-596801D01*
X-100051Y-558701D01*
X-299949Y-558701D01*
X-358001Y-616753D01*
X-400051Y-574701D01*
X-599949Y-574701D01*
X-615059Y-589811D01*
X-684269Y-520601D01*
X-915731Y-520601D01*
X-946981Y-551851D01*
X-989530Y-509301D01*
X-1210470Y-509301D01*
X-1287961Y-586792D01*
X-1300051Y-574701D01*
X-1499949Y-574701D01*
X-1550000Y-624752D01*
X-1600051Y-574701D01*
X-1799949Y-574701D01*
X-1941299Y-716051D01*
X-1941299Y-915949D01*
X-1799949Y-1057299D01*
X-1600051Y-1057299D01*
X-1550000Y-1007248D01*
X-1499949Y-1057299D01*
X-1300051Y-1057299D01*
X-1247961Y-1005209D01*
X-1210470Y-1042699D01*
X-1079399Y-1042699D01*
X-1079399Y-1092737D01*
X-1229399Y-1242737D01*
X-1229399Y-1250602D01*
X-1355730Y-1250602D01*
X-1393940Y-1288812D01*
X-1394051Y-1288701D01*
X-1593949Y-1288701D01*
X-1722801Y-1417553D01*
X-1722801Y-1159833D01*
X-1948701Y-933933D01*
X-1948701Y-880051D01*
X-2090051Y-738701D01*
X-2289949Y-738701D01*
X-2431299Y-880051D01*
X-2431299Y-1079949D01*
X-2311248Y-1200000D01*
X-2361299Y-1250051D01*
X-2361299Y-1303933D01*
X-2532073Y-1474707D01*
X-2532073Y-3182293D01*
X-2492899Y-3221467D01*
X-2492899Y-3239428D01*
X-2490326Y-3242001D01*
X-2953999Y-3242001D01*
X-2953999Y-3546801D01*
X-2966801Y-3546801D01*
X-2966801Y-2535073D01*
X-3685201Y-1816673D01*
X-3685201Y-1672988D01*
X-3710601Y-1647588D01*
X-3710601Y-1169729D01*
X-3447299Y-906427D01*
X-3447299Y-1079949D01*
X-3327248Y-1200000D01*
X-3377299Y-1250051D01*
X-3377299Y-1449949D01*
X-3341599Y-1485650D01*
X-3416000Y-1560051D01*
X-3416000Y-1759949D01*
X-3274650Y-1901299D01*
X-3074752Y-1901299D01*
X-2933402Y-1759949D01*
X-2933402Y-1560051D01*
X-2969103Y-1524351D01*
X-2894701Y-1449949D01*
X-2894701Y-1396067D01*
X-2579583Y-1080949D01*
X-2579583Y-190110D01*
X-2533431Y-236262D01*
G37*
%TD.AperFunction*%
%TA.AperFunction,Conductor*%
G36*
X-2985981Y-858771D02*
X-3106051Y-738701D01*
X-3279573Y-738701D01*
X-3016602Y-475730D01*
X-3016602Y-244270D01*
X-3310601Y+49729D01*
X-3310601Y+743301D01*
X-3139530Y+743301D01*
X-2985981Y+896850D01*
X-2985981Y-858771D01*
G37*
%TD.AperFunction*%
%TA.AperFunction,Conductor*%
G36*
X+350051Y-3141299D02*
X+498671Y-3141299D01*
X+148609Y-3491361D01*
X+122248Y-3465000D01*
X+157299Y-3429949D01*
X+157299Y-3230051D01*
X+119199Y-3191951D01*
X+119199Y-3141299D01*
X+295949Y-3141299D01*
X+322999Y-3114249D01*
X+350051Y-3141299D01*
G37*
%TD.AperFunction*%
D10*
X+1300000Y+166000D02*
X+1300000Y+200000D01*
X+1334000Y+200000D02*
X+1300000Y+166000D01*
X-1700000Y+200000D02*
X-1400000Y+200000D01*
X-1638000Y+1964000D02*
X-1638000Y+2218000D01*
X-1638000Y+2472000D01*
X+200000Y-1200000D02*
X+100000Y-1100000D01*
X+100000Y-800000D01*
X-170000Y-800000D02*
X-200000Y-800000D01*
X-200000Y-1150000D02*
X-200000Y-800000D01*
X-170000Y-800000D02*
X+100000Y-800000D01*
X+196000Y-2900000D02*
X-84000Y-2900000D01*
X-84000Y-2650000D01*
X-84000Y-2521698D01*
X-77807Y-2515505D01*
X+299505Y-2515505D01*
X+300000Y-2516000D01*
X+300000Y-1500000D02*
X+300000Y-1300000D01*
X+200000Y-1200000D01*
X+32699Y-2050000D02*
X+300000Y-1782699D01*
X+300000Y-1500000D01*
X-1754000Y+3350000D02*
X-1571355Y+3532645D01*
X-1428645Y+3532645D01*
X-1246000Y+3350000D01*
X+1490000Y+1830000D02*
X+1488000Y+1828000D01*
X+1508000Y+2860000D02*
X+1492000Y+2844000D01*
X+1334000Y+200000D02*
X+1300000Y+200000D01*
X+384000Y+216000D02*
X+400000Y+200000D01*
X+1490000Y+1828000D02*
X+1490000Y+1830000D01*
D11*
X-950000Y-1700000D02*
X-950000Y-1358466D01*
X-792790Y-1201256D01*
X-800000Y-1194046D01*
X-800000Y-800000D01*
D10*
X-234000Y-2100000D02*
X-234000Y-2639769D01*
X-223769Y-2650000D01*
X-446000Y-2650000D02*
X-223769Y-2650000D01*
X-84000Y-2650000D01*
X-2150000Y-3277000D02*
X-2150000Y-3307000D01*
X-1123000Y-3307000D01*
X-1100000Y-3330000D01*
X-84000Y-3600000D02*
X-84000Y-3330000D01*
X-84000Y-2900000D01*
X-2400000Y+2218000D02*
X-2400000Y+2216701D01*
X-2398701Y+2218000D01*
X-1910000Y-3994000D02*
X-1910000Y-4001000D01*
X-1910000Y-4004000D01*
X-2700000Y-4004000D02*
X-2700000Y-4001000D01*
X-2700000Y-3997000D01*
X-2800000Y-3997000D02*
X-2800000Y-3994000D01*
X-1910000Y-3994000D01*
X-1910000Y-3740000D02*
X-1787000Y-3617000D01*
X-1100000Y-3617000D01*
X-1100000Y-3600000D01*
X-1783000Y-3867000D02*
X-1073000Y-3867000D01*
X-900000Y-4040000D01*
X-900000Y-4050000D01*
X-1400000Y+1350000D02*
X-1400000Y+1560000D01*
X+1000000Y+200000D02*
X+968000Y+200000D01*
X+400000Y+200000D02*
X+368000Y+200000D01*
X+384000Y+216000D01*
X+1568000Y+200000D02*
X+1600000Y+200000D01*
X-6975000Y+709000D02*
X-7098771Y+832771D01*
X-7098771Y+2492945D01*
X-6876716Y+2715000D01*
X-6325000Y+2715000D01*
X-6775000Y+1429000D02*
X-6489000Y+1143000D01*
X-5847000Y+1143000D01*
X-6775000Y+2445000D02*
X-6334258Y+2445000D01*
X-6311969Y+2467289D01*
X-6361000Y+2455000D01*
X-6325000Y+1975000D02*
X-5845000Y+2455000D01*
X-5345000Y+2455000D01*
X-5309000Y+1975000D02*
X-5175000Y+2109000D01*
X-5175000Y+2519073D01*
X-5309000Y+2653073D01*
X-5309000Y+2715000D01*
X-6975000Y+455000D02*
X-6281000Y+455000D01*
X-5847000Y+889000D01*
X-1638000Y+1202000D02*
X-1532000Y+1096000D01*
X-1400000Y+1096000D01*
X-1910000Y-4004000D02*
X-1910000Y-4450000D01*
X-1260000Y-5100000D01*
X-800000Y-5100000D01*
X-2398701Y+2218000D02*
X-2400000Y+2218000D01*
X-2539700Y+2358999D02*
X-2398701Y+2218000D01*
X+658000Y-858000D02*
X+700000Y-816000D01*
X-3136000Y-1350000D02*
X-2782782Y-996782D01*
X-2782782Y+1524688D01*
X-2540000Y+1767470D01*
X-2540000Y+2358699D01*
X-2539700Y+2358999D01*
X+700000Y-816000D02*
X+14000Y-130000D01*
X-2352327Y-130000D01*
X-2497372Y+15045D01*
X-2497372Y+892628D01*
X-2255633Y+1134367D01*
X-2255633Y+1819633D01*
X-2400000Y+1964000D01*
X-2158701Y-1660000D02*
X-2158701Y-2791299D01*
X-2150000Y-2800000D01*
X-2277000Y-3150000D02*
X-2328874Y-3098126D01*
X-2328874Y-1558874D01*
X-2120000Y-1350000D01*
D11*
X-3990000Y-1799240D02*
X-3990000Y-1054000D01*
X-3296000Y-360000D01*
D10*
X-2700000Y-4004000D02*
X-1910000Y-4004000D01*
X-2700000Y-4001000D02*
X-1910000Y-4001000D01*
X-3990000Y-1799240D02*
X-3170000Y-2619240D01*
X-3170000Y-3750000D01*
X-2700000Y-3750000D01*
X-1100000Y+240000D02*
X-816000Y+240000D01*
X-800000Y+256000D01*
X-800000Y+216000D01*
X-1750000Y-2890000D02*
X-2150000Y-2890000D01*
X-2150000Y-2800000D01*
X-2150000Y-3023000D02*
X-2150000Y-2890000D01*
D11*
X-950000Y-1700000D02*
X-960000Y-1710000D01*
X-1250000Y-1710000D01*
X-1250000Y-2100000D02*
X-1250000Y-1710000D01*
X-1250000Y-1540000D01*
X-1240000Y-1530000D01*
X-3990000Y-1799240D02*
X-5784788Y-1799240D01*
X-6217676Y-2232128D01*
D10*
X-6761236Y-3916148D02*
X-6551676Y-4125708D01*
X-4374623Y-4125708D01*
X-3745191Y-3496276D01*
X-3586211Y-3496276D01*
X-1400000Y+1576000D02*
X-1400000Y+1560000D01*
X-1638000Y+1710000D02*
X-1504000Y+1576000D01*
X-1400000Y+1576000D01*
X+4074000Y+1500000D02*
X+4074000Y+1550000D01*
X+4590000Y+1550000D01*
X+4070000Y+900000D02*
X+4070000Y+950000D01*
X+4586000Y+950000D01*
X+4070000Y+350000D02*
X+4070000Y+400000D01*
X+4586000Y+400000D01*
X+4590000Y+2700000D02*
X+4590000Y+2600000D01*
X+4070000Y+2600000D01*
X+4070000Y+2550000D01*
X+4070000Y-100000D02*
X+4070000Y-50000D01*
X+4220000Y-200000D01*
X+4586000Y-200000D01*
X+4054000Y+2000000D02*
X+4054000Y+2120000D01*
X+4590000Y+2120000D01*
X+4037000Y+3597000D02*
X+4052595Y+3612595D01*
X+4589861Y+3612595D01*
X+4818000Y+3840734D01*
X+4818000Y+3900000D01*
X-2190000Y-980000D02*
X-1926000Y-1244000D01*
X-1926000Y-1991504D01*
X-1242000Y-2675504D01*
X-1242000Y-2890000D01*
X+968000Y+200000D02*
X+900000Y+200000D01*
X+768000Y+200000D01*
X+892000Y+324000D01*
X+892000Y+748000D01*
X+700000Y+200000D02*
X+768000Y+200000D01*
X+384000Y+216000D02*
X+300000Y+216000D01*
X+228135Y+216000D01*
X+184000Y+216000D01*
X+384000Y+416000D01*
X+384000Y+748000D01*
X+100000Y+216000D02*
X+184000Y+216000D01*
X-800000Y+216000D02*
X-535777Y+480223D01*
X-391777Y+480223D01*
X-124000Y+748000D01*
X+1400000Y+748000D02*
X+1400000Y+232000D01*
X+1368000Y+200000D01*
X+1439623Y+200000D01*
X+1568000Y+200000D01*
X+1368000Y+200000D02*
X+1334000Y+200000D01*
X-200000Y+216000D02*
X-365464Y+216000D01*
X+130000Y+711464D01*
X+130000Y+748000D01*
X-365464Y+216000D02*
X-484000Y+216000D01*
X-500000Y+200000D01*
X-2050000Y+70000D02*
X-2050000Y+130000D01*
X-1013400Y+1166600D01*
X+1382785Y+1166600D01*
X+1654000Y+895385D01*
X+1654000Y+748000D01*
X-378000Y+748000D02*
X-518472Y+607528D01*
X-1162472Y+607528D01*
X-1400000Y+370000D01*
X-1400000Y+200000D01*
X+280000Y+1870000D02*
X+280000Y+1868701D01*
X-591600Y+1861600D02*
X-865600Y+1587600D01*
X-1400000Y+1587600D01*
X-1400000Y+1576000D01*
X-1500000Y+3350000D02*
X-1500000Y+2797600D01*
X-1314000Y+2611600D01*
X-857600Y+2611600D01*
X-591600Y+2877600D01*
X-630000Y+1510000D02*
X-390000Y+1750000D01*
X-390000Y+1870000D01*
X-340000Y+1870000D01*
X+280000Y+2884701D02*
X+280000Y+3082011D01*
X-47989Y+3410000D01*
X-800395Y+3410000D01*
X-1179121Y+3788726D01*
X-1771273Y+3788726D01*
X-2539700Y+3020299D01*
X-2539700Y+2358999D01*
X+638000Y+1510000D02*
X+638000Y+1580000D01*
X+558000Y+1580000D01*
X+268000Y+1870000D01*
X+280000Y+1870000D01*
X-10000Y+1870000D02*
X+268000Y+1870000D01*
X+280000Y+1870000D02*
X+340000Y+1870000D01*
X+360000Y+1850000D01*
X+360000Y+1800000D01*
X-10000Y+1870000D02*
X-10000Y+1940000D01*
X+260000Y+1940000D01*
X+280000Y+1920000D01*
X+280000Y+1870000D01*
X+1933970Y+2769199D02*
X+1933970Y+2808000D01*
X+1146000Y+1766000D02*
X+1146000Y+1756000D01*
X+976000Y+1756000D01*
X+1006000Y+1786000D01*
X+1070000Y+1850000D01*
X+1146000Y+1510000D02*
X+1146000Y+1756000D01*
X+660000Y+1870000D02*
X+744000Y+1786000D01*
X+1006000Y+1786000D01*
X+1146000Y+1786000D01*
X+1146000Y+1766000D01*
X+1933970Y+2808000D02*
X+1933970Y+2844000D01*
X+1400000Y+1510000D02*
X+1400000Y+1740000D01*
X+1488000Y+1828000D01*
X+1490000Y+1828000D01*
X+1492000Y+1828000D01*
X-840000Y+1860000D02*
X-633069Y+2066931D01*
X+1253069Y+2066931D01*
X+1377700Y+1942300D01*
X+1490000Y+1830000D01*
X+1492000Y+1828000D01*
X+2026000Y+2800000D02*
X+2026000Y+2808000D01*
X+1933970Y+2808000D01*
X+2534000Y+2800000D02*
X+2436666Y+2897334D01*
X+2436666Y+3270000D01*
X+2380000Y+3326666D01*
X+2400000Y+3300000D01*
X+1492000Y+1828000D02*
X+2249183Y+2585183D01*
X+2365183Y+2585183D01*
X+2534000Y+2754000D01*
X+2534000Y+2800000D01*
X+2670000Y+748000D02*
X+2670000Y+898000D01*
X+2819082Y+898000D01*
X+3054000Y+898000D01*
X+3054000Y+900000D01*
X+2670000Y+1510000D02*
X+3046000Y+1510000D01*
X+3058000Y+1498000D01*
X+3058000Y+1500000D01*
X+2416000Y+748000D02*
X+2816000Y+348000D01*
X+3054000Y+348000D01*
X+3054000Y+350000D01*
X+2534000Y+2800000D02*
X+2834000Y+3100000D01*
X+2894000Y+3100000D01*
X+1908000Y+1510000D02*
X+1908000Y+1754000D01*
X+3054000Y+2900000D01*
X+2162000Y+1510000D02*
X+2162000Y+1658000D01*
X+3054000Y+2550000D01*
X+2416000Y+1510000D02*
X+2906000Y+2000000D01*
X+3038000Y+2000000D01*
X+4070000Y+2900000D02*
X+4134000Y+2900000D01*
X+4584000Y+3350000D01*
X+1908000Y+748000D02*
X+3044690Y-388690D01*
X+3044690Y-411100D01*
X+3054000Y-500000D01*
X+3054000Y-100000D02*
X+2234000Y+720000D01*
X+2225500Y+720000D01*
X+2162000Y+748000D01*
X+1920000Y+4420000D02*
X+4044000Y+4420000D01*
X+4564000Y+3900000D01*
X+1710000Y+2844000D02*
X+1675168Y+2878832D01*
X+1675168Y+3404000D01*
X+1933970Y+2844000D02*
X+1710000Y+2844000D01*
X+1508000Y+2844000D01*
X+1508000Y+2860000D01*
X+1920000Y+3404000D02*
X+1675168Y+3404000D01*
X+1480000Y+3404000D01*
X+1470000Y+3414000D01*
D11*
X+660000Y+2886000D02*
X+660000Y+4100000D01*
X+430000Y+4330000D01*
X-3290000Y+4330000D01*
X-3590000Y+4030000D01*
X-3590000Y-66000D01*
X-3296000Y-360000D01*
D10*
X+4070000Y-500000D02*
X+4070000Y-450000D01*
X+4106000Y-450000D01*
X+4406000Y-750000D01*
X+4510000Y-750000D01*
X+116000Y-4050000D02*
X+279668Y-4050000D01*
X+279668Y-3647668D01*
X+781724Y-3145612D01*
X+781724Y-897944D01*
X+821668Y-858000D01*
X+658000Y-858000D01*
D12*
X-3586211Y-3496276D03*
D10*
X+5362520Y-6250000D02*
X-8132520Y-6250000D01*
X-8132520Y+5142520D01*
X+5362520Y+5142520D01*
X+5362520Y-6250000D01*
X+627564Y+4527564D02*
X+939399Y+4215729D01*
X+939399Y+3076647D01*
X+970051Y+3107299D01*
X+1169949Y+3107299D01*
X+1216001Y+3061247D01*
X+1216001Y+3265210D01*
X+1237791Y+3287000D01*
X+1216001Y+3308790D01*
X+1216001Y+3519210D01*
X+1364790Y+3667999D01*
X+1575210Y+3667999D01*
X+1636010Y+3607199D01*
X+1746030Y+3607199D01*
X+1809530Y+3670699D01*
X+2030470Y+3670699D01*
X+2146001Y+3555168D01*
X+2146001Y+3659210D01*
X+2294790Y+3807999D01*
X+2505210Y+3807999D01*
X+2653999Y+3659210D01*
X+2653999Y+3455247D01*
X+2794051Y+3595299D01*
X+2993949Y+3595299D01*
X+3135299Y+3453949D01*
X+3135299Y+3254051D01*
X+3108248Y+3227000D01*
X+3135299Y+3199949D01*
X+3135299Y+3141299D01*
X+3153949Y+3141299D01*
X+3295299Y+2999949D01*
X+3295299Y+2800051D01*
X+3220248Y+2725000D01*
X+3295299Y+2649949D01*
X+3295299Y+2450051D01*
X+3153949Y+2308701D01*
X+3100067Y+2308701D01*
X+3032665Y+2241299D01*
X+3137949Y+2241299D01*
X+3279299Y+2099949D01*
X+3279299Y+1900051D01*
X+3137949Y+1758701D01*
X+2952067Y+1758701D01*
X+2906565Y+1713199D01*
X+2929951Y+1713199D01*
X+2958051Y+1741299D01*
X+3157949Y+1741299D01*
X+3299299Y+1599949D01*
X+3299299Y+1400051D01*
X+3157949Y+1258701D01*
X+3011264Y+1258701D01*
X+3010323Y+1258311D01*
X+3009933Y+1258701D01*
X+2958051Y+1258701D01*
X+2909951Y+1306801D01*
X+2772128Y+1306801D01*
X+2759428Y+1294101D01*
X+2580572Y+1294101D01*
X+2543000Y+1331673D01*
X+2505428Y+1294101D01*
X+2326572Y+1294101D01*
X+2289000Y+1331673D01*
X+2251428Y+1294101D01*
X+2072572Y+1294101D01*
X+2035000Y+1331673D01*
X+1997428Y+1294101D01*
X+1818572Y+1294101D01*
X+1781000Y+1331673D01*
X+1743428Y+1294101D01*
X+1564572Y+1294101D01*
X+1527000Y+1331673D01*
X+1516039Y+1320712D01*
X+1857199Y+979552D01*
X+1857199Y+963899D01*
X+1997428Y+963899D01*
X+2035000Y+926327D01*
X+2072572Y+963899D01*
X+2251428Y+963899D01*
X+2289000Y+926327D01*
X+2326572Y+963899D01*
X+2466801Y+963899D01*
X+2466801Y+982167D01*
X+2585833Y+1101199D01*
X+2913951Y+1101199D01*
X+2954051Y+1141299D01*
X+3153949Y+1141299D01*
X+3295299Y+999949D01*
X+3295299Y+800051D01*
X+3153949Y+658701D01*
X+2954051Y+658701D01*
X+2917951Y+694801D01*
X+2885899Y+694801D01*
X+2885899Y+658572D01*
X+2839346Y+612019D01*
X+2900167Y+551199D01*
X+2913951Y+551199D01*
X+2954051Y+591299D01*
X+3153949Y+591299D01*
X+3295299Y+449949D01*
X+3295299Y+250051D01*
X+3170248Y+125000D01*
X+3295299Y-51D01*
X+3295299Y-199949D01*
X+3219307Y-275941D01*
X+3247889Y-304523D01*
X+3247889Y-352641D01*
X+3295299Y-400051D01*
X+3295299Y-599949D01*
X+3153949Y-741299D01*
X+2954051Y-741299D01*
X+2812701Y-599949D01*
X+2812701Y-444068D01*
X+1836533Y+532101D01*
X+1818572Y+532101D01*
X+1781000Y+569673D01*
X+1743428Y+532101D01*
X+1603199Y+532101D01*
X+1603199Y+466699D01*
X+1710470Y+466699D01*
X+1866699Y+310470D01*
X+1866699Y+89530D01*
X+1710470Y-66699D01*
X+1489530Y-66699D01*
X+1449039Y-26209D01*
X+1399949Y-75299D01*
X+1200051Y-75299D01*
X+1133000Y-8248D01*
X+1099949Y-41299D01*
X+900051Y-41299D01*
X+861951Y-3199D01*
X+838049Y-3199D01*
X+799949Y-41299D01*
X+600051Y-41299D01*
X+567960Y-9209D01*
X+510470Y-66699D01*
X+289530Y-66699D01*
X+224039Y-1209D01*
X+199949Y-25299D01*
X+196665Y-25299D01*
X+746067Y-574701D01*
X+799949Y-574701D01*
X+850000Y-624752D01*
X+900051Y-574701D01*
X+1099949Y-574701D01*
X+1167000Y-641752D01*
X+1200051Y-608701D01*
X+1399949Y-608701D01*
X+1415039Y-623792D01*
X+1489530Y-549301D01*
X+1710470Y-549301D01*
X+1866699Y-705530D01*
X+1866699Y-926470D01*
X+1710470Y-1082699D01*
X+1489530Y-1082699D01*
X+1449039Y-1042209D01*
X+1442208Y-1049040D01*
X+1482699Y-1089530D01*
X+1482699Y-1310470D01*
X+1326470Y-1466699D01*
X+1105530Y-1466699D01*
X+984923Y-1346092D01*
X+984923Y-3229779D01*
X+482867Y-3731835D01*
X+482867Y-4134167D01*
X+363835Y-4253199D01*
X+254049Y-4253199D01*
X+250208Y-4257040D01*
X+332699Y-4339530D01*
X+332699Y-4560470D01*
X+176470Y-4716699D01*
X-44470Y-4716699D01*
X-200699Y-4560470D01*
X-200699Y-4339530D01*
X-68209Y-4207040D01*
X-125299Y-4149949D01*
X-125299Y-3950051D01*
X-16547Y-3841299D01*
X-183949Y-3841299D01*
X-325299Y-3699949D01*
X-325299Y-3500051D01*
X-290248Y-3465000D01*
X-325299Y-3429949D01*
X-325299Y-3230051D01*
X-287199Y-3191951D01*
X-287199Y-2853199D01*
X-289990Y-2853199D01*
X-340790Y-2903999D01*
X-551210Y-2903999D01*
X-573000Y-2882209D01*
X-594790Y-2903999D01*
X-805210Y-2903999D01*
X-953999Y-2755210D01*
X-953999Y-2544790D01*
X-805210Y-2396001D01*
X-594790Y-2396001D01*
X-573000Y-2417791D01*
X-551210Y-2396001D01*
X-437199Y-2396001D01*
X-437199Y-2273970D01*
X-500699Y-2210470D01*
X-500699Y-1989530D01*
X-344470Y-1833301D01*
X-177868Y-1833301D01*
X-200699Y-1810470D01*
X-200699Y-1657999D01*
X-305210Y-1657999D01*
X-453999Y-1509210D01*
X-453999Y-1298790D01*
X-432209Y-1277000D01*
X-453999Y-1255210D01*
X-453999Y-1057299D01*
X-520601Y-1057299D01*
X-520601Y-1078317D01*
X-513391Y-1085527D01*
X-513391Y-1316985D01*
X-670601Y-1474195D01*
X-670601Y-1815731D01*
X-834269Y-1979399D01*
X-834271Y-1979399D01*
X-844271Y-1989399D01*
X-970601Y-1989399D01*
X-970601Y-2215731D01*
X-1134269Y-2379399D01*
X-1250739Y-2379399D01*
X-1038801Y-2591337D01*
X-1038801Y-2636001D01*
X-988001Y-2636001D01*
X-988001Y-3100751D01*
X-858701Y-3230051D01*
X-858701Y-3429949D01*
X-893752Y-3465000D01*
X-858701Y-3500051D01*
X-858701Y-3699949D01*
X-905693Y-3746941D01*
X-843933Y-3808701D01*
X-800051Y-3808701D01*
X-658701Y-3950051D01*
X-658701Y-4149949D01*
X-765792Y-4257040D01*
X-683301Y-4339530D01*
X-683301Y-4560470D01*
X-839530Y-4716699D01*
X-1060470Y-4716699D01*
X-1216699Y-4560470D01*
X-1216699Y-4339530D01*
X-1084209Y-4207040D01*
X-1141299Y-4149949D01*
X-1141299Y-4086067D01*
X-1157167Y-4070199D01*
X-1680872Y-4070199D01*
X-1693572Y-4082899D01*
X-1694101Y-4082899D01*
X-1694101Y-4083428D01*
X-1706801Y-4096128D01*
X-1706801Y-4365833D01*
X-1175833Y-4896801D01*
X-938049Y-4896801D01*
X-899949Y-4858701D01*
X-700051Y-4858701D01*
X-558701Y-5000051D01*
X-558701Y-5199949D01*
X-700051Y-5341299D01*
X-817453Y-5341299D01*
X-808701Y-5350051D01*
X-808701Y-5549949D01*
X-950051Y-5691299D01*
X-1149949Y-5691299D01*
X-1291299Y-5549949D01*
X-1291299Y-5350051D01*
X-1244447Y-5303199D01*
X-1344168Y-5303199D01*
X-1463199Y-5184167D01*
X-2113199Y-4534167D01*
X-2113199Y-4207199D01*
X-2446001Y-4207199D01*
X-2446001Y-4257999D01*
X-2953999Y-4257999D01*
X-2953999Y-4130368D01*
X-3003199Y-4081168D01*
X-3003199Y-3953199D01*
X-3254167Y-3953199D01*
X-3373199Y-3834167D01*
X-3373199Y-2703407D01*
X-3685201Y-2391405D01*
X-3685201Y-2425872D01*
X-3809139Y-2549810D01*
X-3685201Y-2673748D01*
X-3685201Y-2926252D01*
X-3863748Y-3104799D01*
X-4116252Y-3104799D01*
X-4294799Y-2926252D01*
X-4294799Y-2673748D01*
X-4170861Y-2549810D01*
X-4294799Y-2425872D01*
X-4294799Y-2173368D01*
X-4200070Y-2078639D01*
X-5669059Y-2078639D01*
X-5747777Y-2157357D01*
X-5747777Y-2426767D01*
X-6023037Y-2702027D01*
X-6412315Y-2702027D01*
X-6687575Y-2426767D01*
X-6687575Y-2037489D01*
X-6412315Y-1762229D01*
X-6142905Y-1762229D01*
X-5900517Y-1519841D01*
X-4269399Y-1519841D01*
X-4269399Y-938271D01*
X-3691128Y-360000D01*
X-3869399Y-181729D01*
X-3869399Y+4145729D01*
X-3405729Y+4609399D01*
X+545729Y+4609399D01*
X+627564Y+4527564D01*
X+5068599Y+670601D02*
X+5068599Y+120601D01*
X+4357401Y+120601D01*
X+4357401Y+196801D01*
X+4258049Y+196801D01*
X+4186248Y+125000D01*
X+4308049Y+3199D01*
X+4357401Y+3199D01*
X+4357401Y+79399D01*
X+5068599Y+79399D01*
X+5068599Y-479399D01*
X+4992599Y-479399D01*
X+4992599Y-1029399D01*
X+4281401Y-1029399D01*
X+4281401Y-912767D01*
X+4109933Y-741299D01*
X+3970051Y-741299D01*
X+3828701Y-599949D01*
X+3828701Y-400051D01*
X+3928752Y-300000D01*
X+3828701Y-199949D01*
X+3828701Y-51D01*
X+3866801Y+38049D01*
X+3866801Y+85773D01*
X+3948270Y+119518D01*
X+3953752Y+125000D01*
X+3828701Y+250051D01*
X+3828701Y+449949D01*
X+3970051Y+591299D01*
X+3973933Y+591299D01*
X+3985833Y+603199D01*
X+4357401Y+603199D01*
X+4357401Y+746801D01*
X+4258049Y+746801D01*
X+4169949Y+658701D01*
X+3970051Y+658701D01*
X+3828701Y+800051D01*
X+3828701Y+999949D01*
X+3970051Y+1141299D01*
X+3973933Y+1141299D01*
X+3985833Y+1153199D01*
X+4357401Y+1153199D01*
X+4357401Y+1229399D01*
X+5068599Y+1229399D01*
X+5068599Y+670601D01*
X+5072599Y+1270601D02*
X+4361401Y+1270601D01*
X+4361401Y+1346801D01*
X+4262049Y+1346801D01*
X+4173949Y+1258701D01*
X+3974051Y+1258701D01*
X+3832701Y+1400051D01*
X+3832701Y+1599949D01*
X+3974051Y+1741299D01*
X+3977933Y+1741299D01*
X+3989833Y+1753199D01*
X+4361401Y+1753199D01*
X+4361401Y+1829399D01*
X+5072599Y+1829399D01*
X+5072599Y+1270601D01*
X+2093970Y+4623199D02*
X+4128167Y+4623199D01*
X+4597366Y+4153999D01*
X+5071999Y+4153999D01*
X+5071999Y+3646001D01*
X+4910633Y+3646001D01*
X+4894031Y+3629399D01*
X+5066599Y+3629399D01*
X+5066599Y+3070601D01*
X+4591967Y+3070601D01*
X+4500765Y+2979399D01*
X+5072599Y+2979399D01*
X+5072599Y+2420601D01*
X+4697967Y+2420601D01*
X+4676765Y+2399399D01*
X+5072599Y+2399399D01*
X+5072599Y+1840601D01*
X+4361401Y+1840601D01*
X+4361401Y+1916801D01*
X+4295299Y+1916801D01*
X+4295299Y+1900051D01*
X+4153949Y+1758701D01*
X+3954051Y+1758701D01*
X+3812701Y+1900051D01*
X+3812701Y+2099949D01*
X+3850802Y+2138050D01*
X+3850802Y+2204168D01*
X+3962693Y+2316059D01*
X+3828701Y+2450051D01*
X+3828701Y+2649949D01*
X+3903752Y+2725000D01*
X+3828701Y+2800051D01*
X+3828701Y+2999949D01*
X+3955853Y+3127101D01*
X+3947572Y+3127101D01*
X+3821101Y+3253572D01*
X+3821101Y+3432428D01*
X+3858673Y+3470000D01*
X+3821101Y+3507572D01*
X+3821101Y+3686428D01*
X+3947572Y+3812899D01*
X+3965533Y+3812899D01*
X+3968428Y+3815794D01*
X+4310001Y+3815794D01*
X+4310001Y+3866633D01*
X+3959833Y+4216801D01*
X+2093970Y+4216801D01*
X+2030470Y+4153301D01*
X+1809530Y+4153301D01*
X+1653301Y+4309530D01*
X+1653301Y+4530470D01*
X+1809530Y+4686699D01*
X+2030470Y+4686699D01*
X+2093970Y+4623199D01*
X+3140187Y-3697937D02*
X+3140187Y-3929399D01*
X+2976519Y-4093067D01*
X+2745057Y-4093067D01*
X+2581389Y-3929399D01*
X+2581389Y-3697937D01*
X+2745057Y-3534269D01*
X+2976519Y-3534269D01*
X+3140187Y-3697937D01*
X+2053067Y-3697937D02*
X+2053067Y-3929399D01*
X+1889399Y-4093067D01*
X+1657937Y-4093067D01*
X+1494269Y-3929399D01*
X+1494269Y-3697937D01*
X+1657937Y-3534269D01*
X+1889399Y-3534269D01*
X+2053067Y-3697937D01*
X+2787127Y-4932209D02*
X+2787127Y-5321487D01*
X+2511867Y-5596747D01*
X+2122589Y-5596747D01*
X+1847329Y-5321487D01*
X+1847329Y-4932209D01*
X+2122589Y-4656949D01*
X+2511867Y-4656949D01*
X+2787127Y-4932209D01*
X+2787127Y-1935009D02*
X+2787127Y-2324287D01*
X+2511867Y-2599547D01*
X+2122589Y-2599547D01*
X+1847329Y-2324287D01*
X+1847329Y-1935009D01*
X+2122589Y-1659749D01*
X+2511867Y-1659749D01*
X+2787127Y-1935009D01*
X+457299Y-5000051D02*
X+457299Y-5199949D01*
X+384248Y-5273000D01*
X+461299Y-5350051D01*
X+461299Y-5549949D01*
X+319949Y-5691299D01*
X+120051Y-5691299D01*
X-21299Y-5549949D01*
X-21299Y-5350051D01*
X+51752Y-5277000D01*
X-25299Y-5199949D01*
X-25299Y-5000051D01*
X+116051Y-4858701D01*
X+315949Y-4858701D01*
X+457299Y-5000051D01*
X-4266001Y+4203210D02*
X-4266001Y+3992790D01*
X-4287791Y+3971000D01*
X-4266001Y+3949210D01*
X-4266001Y+3738790D01*
X-4414790Y+3590001D01*
X-4625210Y+3590001D01*
X-4773999Y+3738790D01*
X-4773999Y+3949210D01*
X-4752209Y+3971000D01*
X-4773999Y+3992790D01*
X-4773999Y+4203210D01*
X-4625210Y+4351999D01*
X-4414790Y+4351999D01*
X-4266001Y+4203210D01*
X+4072899Y-967967D02*
X+4072899Y-1252033D01*
X+3960932Y-1364000D01*
X+4072899Y-1475967D01*
X+4072899Y-1760033D01*
X+3872033Y-1960899D01*
X+3587967Y-1960899D01*
X+3387101Y-1760033D01*
X+3387101Y-1475967D01*
X+3499068Y-1364000D01*
X+3387101Y-1252033D01*
X+3387101Y-967967D01*
X+3587967Y-767101D01*
X+3872033Y-767101D01*
X+4072899Y-967967D01*
X-5067701Y+2814949D02*
X-5067701Y+2699140D01*
X-4971801Y+2603240D01*
X-4971801Y+2024833D01*
X-5067701Y+1928933D01*
X-5067701Y+1875051D01*
X-5209051Y+1733701D01*
X-5408949Y+1733701D01*
X-5550299Y+1875051D01*
X-5550299Y+2074949D01*
X-5411547Y+2213701D01*
X-5444949Y+2213701D01*
X-5483049Y+2251801D01*
X-5760833Y+2251801D01*
X-6083701Y+1928933D01*
X-6083701Y+1875051D01*
X-6225051Y+1733701D01*
X-6424949Y+1733701D01*
X-6566299Y+1875051D01*
X-6566299Y+2074949D01*
X-6427547Y+2213701D01*
X-6460949Y+2213701D01*
X-6489049Y+2241801D01*
X-6636951Y+2241801D01*
X-6675051Y+2203701D01*
X-6874949Y+2203701D01*
X-6895572Y+2224324D01*
X-6895572Y+1649676D01*
X-6874949Y+1670299D01*
X-6675051Y+1670299D01*
X-6533701Y+1528949D01*
X-6533701Y+1475067D01*
X-6404833Y+1346199D01*
X-6062899Y+1346199D01*
X-6062899Y+1358899D01*
X-5631101Y+1358899D01*
X-5631101Y+799572D01*
X-5668674Y+761999D01*
X-5631101Y+724428D01*
X-5631101Y+545572D01*
X-5757572Y+419101D01*
X-5936428Y+419101D01*
X-5982981Y+465653D01*
X-6196833Y+251801D01*
X-6818990Y+251801D01*
X-6869790Y+201001D01*
X-7080210Y+201001D01*
X-7228999Y+349790D01*
X-7228999Y+560210D01*
X-7207209Y+582000D01*
X-7228999Y+603790D01*
X-7228999Y+675632D01*
X-7301970Y+748604D01*
X-7301970Y+2577112D01*
X-6960883Y+2918199D01*
X-6463049Y+2918199D01*
X-6424949Y+2956299D01*
X-6225051Y+2956299D01*
X-6083701Y+2814949D01*
X-6083701Y+2615051D01*
X-6131753Y+2566999D01*
X-6119701Y+2554949D01*
X-6119701Y+2540142D01*
X-6093488Y+2493878D01*
X-5929167Y+2658199D01*
X-5550299Y+2658199D01*
X-5550299Y+2814949D01*
X-5408949Y+2956299D01*
X-5209051Y+2956299D01*
X-5067701Y+2814949D01*
X-4869101Y+1232428D02*
X-4869101Y+1053572D01*
X-4906673Y+1016000D01*
X-4869101Y+978428D01*
X-4869101Y+799572D01*
X-4906673Y+762000D01*
X-4869101Y+724428D01*
X-4869101Y+545572D01*
X-4995572Y+419101D01*
X-5174428Y+419101D01*
X-5300899Y+545572D01*
X-5300899Y+724428D01*
X-5263327Y+762000D01*
X-5300899Y+799572D01*
X-5300899Y+978428D01*
X-5263327Y+1016000D01*
X-5300899Y+1053572D01*
X-5300899Y+1232428D01*
X-5174428Y+1358899D01*
X-4995572Y+1358899D01*
X-4869101Y+1232428D01*
X-3383012Y-3412108D02*
X-3383012Y-3580444D01*
X-3502043Y-3699475D01*
X-3661024Y-3699475D01*
X-4290456Y-4328907D01*
X-6635843Y-4328907D01*
X-6769203Y-4195547D01*
X-6876967Y-4195547D01*
X-7040635Y-4031879D01*
X-7040635Y-3800417D01*
X-6876967Y-3636749D01*
X-6645505Y-3636749D01*
X-6481837Y-3800417D01*
X-6481837Y-3908181D01*
X-6467509Y-3922509D01*
X-5953515Y-3922509D01*
X-5953515Y-3800417D01*
X-5789847Y-3636749D01*
X-5558385Y-3636749D01*
X-5394717Y-3800417D01*
X-5394717Y-3922509D01*
X-4458790Y-3922509D01*
X-3829358Y-3293077D01*
X-3502043Y-3293077D01*
X-3383012Y-3412108D01*
X-5747777Y-5034689D02*
X-5747777Y-5423967D01*
X-6023037Y-5699227D01*
X-6412315Y-5699227D01*
X-6687575Y-5423967D01*
X-6687575Y-5034689D01*
X-6412315Y-4759429D01*
X-6023037Y-4759429D01*
X-5747777Y-5034689D01*
X+970051Y+2624701D02*
X+1169949Y+2624701D01*
X+1252039Y+2706791D01*
X+1381530Y+2577301D01*
X+1602470Y+2577301D01*
X+1665970Y+2640801D01*
X+1775001Y+2640801D01*
X+1797401Y+2618401D01*
X+1797401Y+2520601D01*
X+1897235Y+2520601D01*
X+1492000Y+2115366D01*
X+1337236Y+2270130D01*
X-717236Y+2270130D01*
X-886067Y+2101299D01*
X-939949Y+2101299D01*
X-1081299Y+1959949D01*
X-1081299Y+1790799D01*
X-1422101Y+1790799D01*
X-1422101Y+1799428D01*
X-1459673Y+1837000D01*
X-1422101Y+1874572D01*
X-1422101Y+2053428D01*
X-1434802Y+2066128D01*
X-1434802Y+2115871D01*
X-1422101Y+2128572D01*
X-1422101Y+2307428D01*
X-1434802Y+2320129D01*
X-1434802Y+2369871D01*
X-1422101Y+2382572D01*
X-1422101Y+2432333D01*
X-1398167Y+2408401D01*
X-773433Y+2408401D01*
X-545533Y+2636301D01*
X-491651Y+2636301D01*
X-461600Y+2666352D01*
X-439949Y+2644701D01*
X-240051Y+2644701D01*
X-175000Y+2709752D01*
X-109949Y+2644701D01*
X+89949Y+2644701D01*
X+134350Y+2689102D01*
X+180051Y+2643402D01*
X+379949Y+2643402D01*
X+443708Y+2707161D01*
X+544269Y+2606601D01*
X+775731Y+2606601D01*
X+881941Y+2712811D01*
X+970051Y+2624701D01*
X+1196801Y+404049D02*
X+1166999Y+374247D01*
X+1099949Y+441299D01*
X+1095199Y+441299D01*
X+1095199Y+532101D01*
X+1196801Y+532101D01*
X+1196801Y+404049D01*
X-2007999Y+3244790D02*
X-1859210Y+3096001D01*
X-1703199Y+3096001D01*
X-1703199Y+2941899D01*
X-1727428Y+2941899D01*
X-1853899Y+2815428D01*
X-1853899Y+2636572D01*
X-1816327Y+2599000D01*
X-1853899Y+2561428D01*
X-1853899Y+2382572D01*
X-1841199Y+2369872D01*
X-1841199Y+2320128D01*
X-1853899Y+2307428D01*
X-1853899Y+2128572D01*
X-1841199Y+2115872D01*
X-1841199Y+2066128D01*
X-1853899Y+2053428D01*
X-1853899Y+1874572D01*
X-1816328Y+1836999D01*
X-1853899Y+1799428D01*
X-1853899Y+1620572D01*
X-1816327Y+1583000D01*
X-1853899Y+1545428D01*
X-1853899Y+986101D01*
X-1709467Y+986101D01*
X-1616167Y+892801D01*
X-1574565Y+892801D01*
X-2180059Y+287307D01*
X-2204051Y+311299D01*
X-2294173Y+311299D01*
X-2294173Y+808461D01*
X-2052434Y+1050200D01*
X-2052434Y+1903800D01*
X-2184101Y+2035467D01*
X-2184101Y+2053428D01*
X-2221674Y+2090999D01*
X-2184101Y+2128572D01*
X-2184101Y+2307428D01*
X-2221673Y+2345000D01*
X-2184101Y+2382572D01*
X-2184101Y+2561428D01*
X-2221673Y+2599000D01*
X-2184101Y+2636572D01*
X-2184101Y+2815428D01*
X-2310572Y+2941899D01*
X-2330734Y+2941899D01*
X-2007999Y+3264634D01*
X-2007999Y+3244790D01*
X-2533431Y-236262D02*
X-2546699Y-249530D01*
X-2546699Y-470470D01*
X-2390470Y-626699D01*
X-2169530Y-626699D01*
X-2013301Y-470470D01*
X-2013301Y-333199D01*
X-70168Y-333199D01*
X+155334Y-558701D01*
X+51Y-558701D01*
X-38049Y-596801D01*
X-61951Y-596801D01*
X-100051Y-558701D01*
X-299949Y-558701D01*
X-358001Y-616753D01*
X-400051Y-574701D01*
X-599949Y-574701D01*
X-615059Y-589811D01*
X-684269Y-520601D01*
X-915731Y-520601D01*
X-946981Y-551851D01*
X-989530Y-509301D01*
X-1210470Y-509301D01*
X-1287961Y-586792D01*
X-1300051Y-574701D01*
X-1499949Y-574701D01*
X-1550000Y-624752D01*
X-1600051Y-574701D01*
X-1799949Y-574701D01*
X-1941299Y-716051D01*
X-1941299Y-915949D01*
X-1799949Y-1057299D01*
X-1600051Y-1057299D01*
X-1550000Y-1007248D01*
X-1499949Y-1057299D01*
X-1300051Y-1057299D01*
X-1247961Y-1005209D01*
X-1210470Y-1042699D01*
X-1079399Y-1042699D01*
X-1079399Y-1092737D01*
X-1229399Y-1242737D01*
X-1229399Y-1250602D01*
X-1355730Y-1250602D01*
X-1393940Y-1288812D01*
X-1394051Y-1288701D01*
X-1593949Y-1288701D01*
X-1722801Y-1417553D01*
X-1722801Y-1159833D01*
X-1948701Y-933933D01*
X-1948701Y-880051D01*
X-2090051Y-738701D01*
X-2289949Y-738701D01*
X-2431299Y-880051D01*
X-2431299Y-1079949D01*
X-2311248Y-1200000D01*
X-2361299Y-1250051D01*
X-2361299Y-1303933D01*
X-2532073Y-1474707D01*
X-2532073Y-3182293D01*
X-2492899Y-3221467D01*
X-2492899Y-3239428D01*
X-2490326Y-3242001D01*
X-2953999Y-3242001D01*
X-2953999Y-3546801D01*
X-2966801Y-3546801D01*
X-2966801Y-2535073D01*
X-3685201Y-1816673D01*
X-3685201Y-1672988D01*
X-3710601Y-1647588D01*
X-3710601Y-1169729D01*
X-3447299Y-906427D01*
X-3447299Y-1079949D01*
X-3327248Y-1200000D01*
X-3377299Y-1250051D01*
X-3377299Y-1449949D01*
X-3341599Y-1485650D01*
X-3416000Y-1560051D01*
X-3416000Y-1759949D01*
X-3274650Y-1901299D01*
X-3074752Y-1901299D01*
X-2933402Y-1759949D01*
X-2933402Y-1560051D01*
X-2969103Y-1524351D01*
X-2894701Y-1449949D01*
X-2894701Y-1396067D01*
X-2579583Y-1080949D01*
X-2579583Y-190110D01*
X-2533431Y-236262D01*
X-2985981Y-858771D02*
X-3106051Y-738701D01*
X-3279573Y-738701D01*
X-3016602Y-475730D01*
X-3016602Y-244270D01*
X-3310601Y+49729D01*
X-3310601Y+743301D01*
X-3139530Y+743301D01*
X-2985981Y+896850D01*
X-2985981Y-858771D01*
X+350051Y-3141299D02*
X+498671Y-3141299D01*
X+148609Y-3491361D01*
X+122248Y-3465000D01*
X+157299Y-3429949D01*
X+157299Y-3230051D01*
X+119199Y-3191951D01*
X+119199Y-3141299D01*
X+295949Y-3141299D01*
X+322999Y-3114249D01*
X+350051Y-3141299D01*
X-200000Y-1607199D02*
X-200000Y-1404000D01*
X-403199Y-1404000D02*
X-200000Y-1404000D01*
X+1146000Y+582901D02*
X+1146000Y+748000D01*
X+1654000Y+1344901D02*
X+1654000Y+1510000D01*
X+4764000Y-978599D02*
X+4764000Y-750000D01*
X+4941799Y-750000D02*
X+4764000Y-750000D01*
X+5017799Y+950000D02*
X+4840000Y+950000D01*
X+4840000Y+1178599D02*
X+4840000Y+950000D01*
X+4840000Y+171401D02*
X+4840000Y+400000D01*
X+5017799Y+400000D02*
X+4840000Y+400000D01*
X+5017799Y-200000D02*
X+4840000Y-200000D01*
X+4840000Y+28599D02*
X+4840000Y-200000D01*
X+4844000Y+1321401D02*
X+4844000Y+1550000D01*
X+5021799Y+1550000D02*
X+4844000Y+1550000D01*
X+4844000Y+1778599D02*
X+4844000Y+1550000D01*
X+4844000Y+1891401D02*
X+4844000Y+2120000D01*
X+5021799Y+2120000D02*
X+4844000Y+2120000D01*
X+4844000Y+2348599D02*
X+4844000Y+2120000D01*
X+4844000Y+2471401D02*
X+4844000Y+2700000D01*
X+5021799Y+2700000D02*
X+4844000Y+2700000D01*
X+4844000Y+2928599D02*
X+4844000Y+2700000D01*
X+4838000Y+3121401D02*
X+4838000Y+3350000D01*
X+5015799Y+3350000D02*
X+4838000Y+3350000D01*
X+1600000Y-600101D02*
X+1600000Y-816000D01*
X+1600000Y-1031899D02*
X+1600000Y-816000D01*
X+1815899Y-816000D02*
X+1600000Y-816000D01*
X-1100000Y-560101D02*
X-1100000Y-776000D01*
X-1100000Y-991899D02*
X-1100000Y-776000D01*
X-500000Y-625501D02*
X-500000Y-816000D01*
X-500000Y-1006499D02*
X-500000Y-816000D01*
X-10000Y+2695501D02*
X-10000Y+2886000D01*
X+1000000Y-625501D02*
X+1000000Y-816000D01*
X-1700000Y-625501D02*
X-1700000Y-816000D01*
X-1700000Y-1006499D02*
X-1700000Y-816000D01*
X-1890499Y-816000D02*
X-1700000Y-816000D01*
X+1070000Y+2675501D02*
X+1070000Y+2866000D01*
X+1070000Y+3056499D02*
X+1070000Y+2866000D01*
X-149899Y-1700000D02*
X+66000Y-1700000D01*
X-903199Y-2650000D02*
X-700000Y-2650000D01*
X-700000Y-2853199D02*
X-700000Y-2650000D01*
X-700000Y-2446801D02*
X-700000Y-2650000D01*
X-1494000Y-1339501D02*
X-1494000Y-1530000D01*
X+1431899Y-1200000D02*
X+1216000Y-1200000D01*
X+1216000Y-1415899D02*
X+1216000Y-1200000D01*
X+450000Y-3090499D02*
X+450000Y-2900000D01*
X-1803099Y+2726000D02*
X-1638000Y+2726000D01*
X-2234901Y+2726000D02*
X-2400000Y+2726000D01*
X-2234901Y+2472000D02*
X-2400000Y+2472000D01*
X+1266801Y+3160000D02*
X+1470000Y+3160000D01*
X+2894000Y+3544499D02*
X+2894000Y+3354000D01*
X+3084499Y+3354000D02*
X+2894000Y+3354000D01*
X+2400000Y+3757199D02*
X+2400000Y+3554000D01*
X+2603199Y+3554000D02*
X+2400000Y+3554000D01*
X+2196801Y+3554000D02*
X+2400000Y+3554000D01*
X-2984202Y-1660000D02*
X-3174701Y-1660000D01*
X-3365200Y-1660000D02*
X-3174701Y-1660000D01*
X-3174701Y-1850499D02*
X-3174701Y-1660000D01*
X-3396499Y-980000D02*
X-3206000Y-980000D01*
X-3206000Y-789501D02*
X-3206000Y-980000D01*
X+3089387Y-3813668D02*
X+2860788Y-3813668D01*
X+2632189Y-3813668D02*
X+2860788Y-3813668D01*
X+2860788Y-3585069D02*
X+2860788Y-3813668D01*
X+2860788Y-4042267D02*
X+2860788Y-3813668D01*
X-149899Y-4450000D02*
X+66000Y-4450000D01*
X+281899Y-4450000D02*
X+66000Y-4450000D01*
X+66000Y-4665899D02*
X+66000Y-4450000D01*
X+25501Y-5100000D02*
X+216000Y-5100000D01*
X+406499Y-5100000D02*
X+216000Y-5100000D01*
X+216000Y-4909501D02*
X+216000Y-5100000D01*
X+29501Y-5450000D02*
X+220000Y-5450000D01*
X+410499Y-5450000D02*
X+220000Y-5450000D01*
X+220000Y-5640499D02*
X+220000Y-5450000D01*
X-2495899Y-360000D02*
X-2280000Y-360000D01*
X-2064101Y-360000D02*
X-2280000Y-360000D01*
X-2280000Y-575899D02*
X-2280000Y-360000D01*
X-4520000Y+4301199D02*
X-4520000Y+4098000D01*
X-4316801Y+4098000D02*
X-4520000Y+4098000D01*
X-4723199Y+4098000D02*
X-4520000Y+4098000D01*
X+3871901Y+3343000D02*
X+4037000Y+3343000D01*
X-5085000Y+469901D02*
X-5085000Y+635000D01*
X-5250099Y+635000D02*
X-5085000Y+635000D01*
X-4919901Y+635000D02*
X-5085000Y+635000D01*
X-5445517Y-3916148D02*
X-5674116Y-3916148D01*
X-5902715Y-3916148D02*
X-5674116Y-3916148D01*
X-5674116Y-3687549D02*
X-5674116Y-3916148D01*
D13*
X-200000Y-1404000D03*
X-200000Y-1150000D03*
D14*
X-632000Y+748000D03*
D15*
X-378000Y+748000D03*
X-124000Y+748000D03*
X+130000Y+748000D03*
X+384000Y+748000D03*
X+638000Y+748000D03*
X+892000Y+748000D03*
X+1146000Y+748000D03*
X+1400000Y+748000D03*
X+1654000Y+748000D03*
X+1908000Y+748000D03*
X+2162000Y+748000D03*
X+2416000Y+748000D03*
X+2670000Y+748000D03*
X+2670000Y+1510000D03*
X+2416000Y+1510000D03*
X+2162000Y+1510000D03*
X+1908000Y+1510000D03*
X+1654000Y+1510000D03*
X+1400000Y+1510000D03*
X+1146000Y+1510000D03*
X+892000Y+1510000D03*
X+638000Y+1510000D03*
X+384000Y+1510000D03*
X+130000Y+1510000D03*
X-124000Y+1510000D03*
X-378000Y+1510000D03*
X-630000Y+1510000D03*
D16*
X+4510000Y-750000D03*
X+4764000Y-750000D03*
X+4586000Y+950000D03*
X+4840000Y+950000D03*
X+4586000Y+400000D03*
X+4840000Y+400000D03*
X+4586000Y-200000D03*
X+4840000Y-200000D03*
X+4590000Y+1550000D03*
X+4844000Y+1550000D03*
X+4590000Y+2120000D03*
X+4844000Y+2120000D03*
X+4590000Y+2700000D03*
X+4844000Y+2700000D03*
X+4584000Y+3350000D03*
X+4838000Y+3350000D03*
D17*
X+3054000Y-500000D03*
X+4070000Y-500000D03*
X+3054000Y-100000D03*
X+4070000Y-100000D03*
X+3054000Y+350000D03*
X+4070000Y+350000D03*
X+4074000Y+1500000D03*
X+3058000Y+1500000D03*
X+3038000Y+2000000D03*
X+4054000Y+2000000D03*
X+3054000Y+2550000D03*
X+4070000Y+2550000D03*
X+3054000Y+2900000D03*
X+4070000Y+2900000D03*
X+3054000Y+900000D03*
X+4070000Y+900000D03*
X+1300000Y-850000D03*
X+1300000Y+166000D03*
X-800000Y-800000D03*
X-800000Y+216000D03*
X-200000Y-800000D03*
X-200000Y+216000D03*
X+100000Y-800000D03*
X+100000Y+216000D03*
X+280000Y+2884701D03*
X+280000Y+1868701D03*
X+700000Y-816000D03*
X+700000Y+200000D03*
X-1400000Y-816000D03*
X-1400000Y+200000D03*
X+660000Y+2886000D03*
X+660000Y+1870000D03*
D18*
X+1600000Y-816000D03*
X+1600000Y+200000D03*
X-1100000Y-776000D03*
X-1100000Y+240000D03*
D17*
X-500000Y+200000D03*
X-500000Y-816000D03*
D18*
X+400000Y-816000D03*
X+400000Y+200000D03*
D17*
X-10000Y+1870000D03*
X-10000Y+2886000D03*
X+1000000Y+200000D03*
X+1000000Y-816000D03*
X-1700000Y+200000D03*
X-1700000Y-816000D03*
X+1070000Y+1850000D03*
X+1070000Y+2866000D03*
D18*
X+66000Y-1700000D03*
X-950000Y-1700000D03*
X-1250000Y-2100000D03*
X-234000Y-2100000D03*
D17*
X-84000Y-3330000D03*
X-1100000Y-3330000D03*
X-84000Y-3600000D03*
X-1100000Y-3600000D03*
D13*
X-700000Y-2650000D03*
X-446000Y-2650000D03*
D17*
X+300000Y-1500000D03*
X+300000Y-2516000D03*
X-1240000Y-1530000D03*
X-1494000Y-1530000D03*
D18*
X+1216000Y-1200000D03*
X+200000Y-1200000D03*
D17*
X+196000Y-2900000D03*
X+450000Y-2900000D03*
X+32699Y-2050000D03*
X+32699Y-2304000D03*
D14*
X-1638000Y+1202000D03*
D15*
X-1638000Y+1456000D03*
X-1638000Y+1710000D03*
X-1638000Y+1964000D03*
X-1638000Y+2218000D03*
X-1638000Y+2472000D03*
X-1638000Y+2726000D03*
X-2400000Y+2726000D03*
X-2400000Y+2472000D03*
X-2400000Y+2218000D03*
X-2400000Y+1964000D03*
X-2400000Y+1710000D03*
X-2400000Y+1456000D03*
X-2400000Y+1202000D03*
D18*
X+1492000Y+1828000D03*
X+1492000Y+2844000D03*
X+1920000Y+4420000D03*
X+1920000Y+3404000D03*
D13*
X+1470000Y+3414000D03*
X+1470000Y+3160000D03*
D16*
X+2026000Y+2800000D03*
X+2280000Y+2800000D03*
X+2534000Y+2800000D03*
D17*
X+2894000Y+3354000D03*
X+2894000Y+3100000D03*
D13*
X+2400000Y+3300000D03*
X+2400000Y+3554000D03*
D17*
X-3136000Y-1350000D03*
X-2120000Y-1350000D03*
D15*
X-2150000Y-3023000D03*
X-2277000Y-3150000D03*
X-2150000Y-3277000D03*
D17*
X-2158701Y-1660000D03*
X-3174701Y-1660000D03*
D19*
X-1750000Y-2890000D03*
X-1496000Y-2890000D03*
X-1242000Y-2890000D03*
D17*
X-2190000Y-980000D03*
X-3206000Y-980000D03*
D70*
X+2860788Y-3813668D03*
X+1773668Y-3813668D03*
D71*
X+2317228Y-5126848D03*
X+2317228Y-2129648D03*
D17*
X+116000Y-4050000D03*
X-900000Y-4050000D03*
D18*
X+66000Y-4450000D03*
X-950000Y-4450000D03*
D20*
X-3990000Y-2800000D03*
X-3990000Y-2299620D03*
X-3990000Y-1799240D03*
D15*
X-1910000Y-3994000D03*
X-1783000Y-3867000D03*
X-1910000Y-3740000D03*
D17*
X-800000Y-5100000D03*
X+216000Y-5100000D03*
D19*
X-2700000Y-4004000D03*
X-2700000Y-3750000D03*
X-2700000Y-3496000D03*
D17*
X-1050000Y-5450000D03*
X+220000Y-5450000D03*
D18*
X-2280000Y-360000D03*
X-3296000Y-360000D03*
D17*
X-1400000Y+1350000D03*
X-1400000Y+1096000D03*
X-591600Y+2877600D03*
X-591600Y+1861600D03*
D13*
X-1754000Y+3350000D03*
X-1500000Y+3350000D03*
X-1246000Y+3350000D03*
D18*
X-3250000Y+1010000D03*
X-3250000Y+3260000D03*
D13*
X-4520000Y+3844000D03*
X-4520000Y+4098000D03*
D17*
X-2304000Y+70000D03*
X-2050000Y+70000D03*
X-840000Y+2876000D03*
X-840000Y+1860000D03*
D19*
X+4564000Y+3900000D03*
X+4818000Y+3900000D03*
D15*
X+4037000Y+3343000D03*
X+4164000Y+3470000D03*
X+4037000Y+3597000D03*
D17*
X-340000Y+1870000D03*
X-340000Y+2886000D03*
D21*
X+3730000Y-1618000D03*
X+3730000Y-1110000D03*
D13*
X-6975000Y+455000D03*
X-6975000Y+709000D03*
D17*
X-6325000Y+2715000D03*
X-5309000Y+2715000D03*
X-5309000Y+1975000D03*
X-6325000Y+1975000D03*
X-5345000Y+2455000D03*
X-6361000Y+2455000D03*
X-6775000Y+2445000D03*
X-6775000Y+1429000D03*
D14*
X-5847000Y+1143000D03*
D15*
X-5847000Y+889000D03*
X-5847000Y+635000D03*
X-5085000Y+635000D03*
X-5085000Y+889000D03*
X-5085000Y+1143000D03*
D70*
X-5674116Y-3916148D03*
X-6761236Y-3916148D03*
D71*
X-6217676Y-5229328D03*
X-6217676Y-2232128D03*
D22*
X-8290000Y-6520000D02*
X+5520000Y-6520000D01*
X+5520000Y+5300000D01*
X-8290000Y+5300000D01*
X-8290000Y-6520000D01*
M02*
