G04 PROTEUS GERBER X2 FILE*
%TF.GenerationSoftware,Labcenter,Proteus,8.15-SP1-Build34318*%
%TF.CreationDate,2023-09-22T14:49:31+00:00*%
%TF.FileFunction,Copper,L1,Top*%
%TF.FilePolarity,Positive*%
%TF.Part,Single*%
%TF.SameCoordinates,{cc55e535-ffdd-4919-8125-6210c26246c2}*%
%FSLAX45Y45*%
%MOMM*%
G01*
%TA.AperFunction,Conductor*%
%ADD10C,1.016000*%
%ADD11C,2.540000*%
%TA.AperFunction,ViaPad*%
%ADD12C,0.762000*%
%TA.AperFunction,ComponentPad*%
%ADD13C,2.032000*%
%TA.AperFunction,ComponentPad*%
%ADD14R,1.270000X1.270000*%
%ADD15C,1.270000*%
%AMDIL006*
4,1,8,
-0.762000,0.965200,-0.457200,1.270000,0.457200,1.270000,0.762000,0.965200,0.762000,-0.965200,
0.457200,-1.270000,-0.457200,-1.270000,-0.762000,-0.965200,-0.762000,0.965200,
0*%
%TA.AperFunction,ComponentPad*%
%ADD16DIL006*%
%ADD17C,1.778000*%
%ADD18C,2.286000*%
%TA.AperFunction,ComponentPad*%
%ADD19R,2.032000X2.032000*%
%TA.AperFunction,ComponentPad*%
%ADD70C,2.540000*%
%ADD71C,6.350000*%
%TA.AperFunction,ComponentPad*%
%ADD20C,3.048000*%
%TA.AperFunction,ComponentPad*%
%ADD21C,3.810000*%
%TA.AperFunction,Profile*%
%ADD22C,0.101600*%
%TD.AperFunction*%
%TA.AperFunction,Conductor*%
G36*
X+5362520Y+4686277D02*
X+4979398Y+5069399D01*
X-2450747Y+5069399D01*
X-3363222Y+4156924D01*
X-3363224Y+4156924D01*
X-3396749Y+4123399D01*
X-4266001Y+4123399D01*
X-4266001Y+4203210D01*
X-4414790Y+4351999D01*
X-4625210Y+4351999D01*
X-4773999Y+4203210D01*
X-4773999Y+3992790D01*
X-4770170Y+3988960D01*
X-4799399Y+3959731D01*
X-4799399Y+3728269D01*
X-4635731Y+3564601D01*
X-3526892Y+3564601D01*
X-3526892Y+3378236D01*
X-3529398Y+3375730D01*
X-3529398Y+3144270D01*
X-3365730Y+2980602D01*
X-3134270Y+2980602D01*
X-2968094Y+3146778D01*
X-2968094Y+3761796D01*
X-2219289Y+4510601D01*
X+1653301Y+4510601D01*
X+1653301Y+4309530D01*
X+1799632Y+4163199D01*
X+1355834Y+4163199D01*
X+829135Y+3636500D01*
X+123134Y+3636500D01*
X-386067Y+3127299D01*
X-439949Y+3127299D01*
X-470000Y+3097248D01*
X-491651Y+3118899D01*
X-636801Y+3118899D01*
X-636801Y+3364167D01*
X-1095833Y+3823199D01*
X-2179413Y+3823199D01*
X-3295614Y+2706999D01*
X-3295614Y+1623582D01*
X-3826997Y+1092199D01*
X-4422600Y+1092199D01*
X-4422600Y+3158126D01*
X-4511874Y+3247400D01*
X-7208126Y+3247400D01*
X-7297400Y+3158126D01*
X-7297400Y+71874D01*
X-7208126Y-17400D01*
X-4672528Y-17400D01*
X-4759399Y-104271D01*
X-4759399Y-2215729D01*
X-4396109Y-2579019D01*
X-4200070Y-2579019D01*
X-4294799Y-2673748D01*
X-4294799Y-2926252D01*
X-4116252Y-3104799D01*
X-3863748Y-3104799D01*
X-3838348Y-3079399D01*
X-2764271Y-3079399D01*
X-2425520Y-2740648D01*
X-2003999Y-2740648D01*
X-2003999Y-2863674D01*
X-2060572Y-2807101D01*
X-2239428Y-2807101D01*
X-2365899Y-2933572D01*
X-2365899Y-2934101D01*
X-2366428Y-2934101D01*
X-2492899Y-3060572D01*
X-2492899Y-3239428D01*
X-2490326Y-3242001D01*
X-2953999Y-3242001D01*
X-2953999Y-3293077D01*
X-3670379Y-3293077D01*
X-3789410Y-3412108D01*
X-3789410Y-3580444D01*
X-3670379Y-3699475D01*
X-2953999Y-3699475D01*
X-2953999Y-4257999D01*
X-2529368Y-4257999D01*
X-2434167Y-4353199D01*
X-1291299Y-5496067D01*
X-1291299Y-5549949D01*
X-1149949Y-5691299D01*
X-950051Y-5691299D01*
X-808701Y-5549949D01*
X-808701Y-5350051D01*
X-817453Y-5341299D01*
X-700051Y-5341299D01*
X-558701Y-5199949D01*
X-558701Y-5119399D01*
X-25299Y-5119399D01*
X-25299Y-5199949D01*
X+51752Y-5277000D01*
X-21299Y-5350051D01*
X-21299Y-5549949D01*
X+120051Y-5691299D01*
X+319949Y-5691299D01*
X+461299Y-5549949D01*
X+461299Y-5350051D01*
X+384248Y-5273000D01*
X+457299Y-5199949D01*
X+457299Y-5119399D01*
X+1847329Y-5119399D01*
X+1847329Y-5321487D01*
X+2122589Y-5596747D01*
X+2511867Y-5596747D01*
X+2787127Y-5321487D01*
X+2787127Y-4932209D01*
X+2511867Y-4656949D01*
X+2242457Y-4656949D01*
X+2146109Y-4560601D01*
X+332568Y-4560601D01*
X+332699Y-4560470D01*
X+332699Y-4339530D01*
X+250208Y-4257040D01*
X+357299Y-4149949D01*
X+357299Y-4016867D01*
X+1581737Y-4016867D01*
X+1657937Y-4093067D01*
X+1889399Y-4093067D01*
X+2053067Y-3929399D01*
X+2053067Y-3697937D01*
X+1889399Y-3534269D01*
X+1657937Y-3534269D01*
X+1581737Y-3610469D01*
X+157299Y-3610469D01*
X+157299Y-3500051D01*
X+122248Y-3465000D01*
X+157299Y-3429949D01*
X+157299Y-3230051D01*
X+15949Y-3088701D01*
X-183949Y-3088701D01*
X-325299Y-3230051D01*
X-325299Y-3429949D01*
X-290248Y-3465000D01*
X-325299Y-3500051D01*
X-325299Y-3519335D01*
X-988001Y-2856634D01*
X-988001Y-2693128D01*
X-953999Y-2659126D01*
X-953999Y-2755210D01*
X-805210Y-2903999D01*
X-594790Y-2903999D01*
X-573000Y-2882209D01*
X-551210Y-2903999D01*
X-340790Y-2903999D01*
X-192001Y-2755210D01*
X-192001Y-2544790D01*
X-340790Y-2396001D01*
X-551210Y-2396001D01*
X-573000Y-2417791D01*
X-594790Y-2396001D01*
X-690874Y-2396001D01*
X-500699Y-2205826D01*
X-500699Y-2210470D01*
X-344470Y-2366699D01*
X-208600Y-2366699D01*
X-208600Y-2403949D01*
X-67250Y-2545299D01*
X+58701Y-2545299D01*
X+58701Y-2615949D01*
X+101453Y-2658701D01*
X+96051Y-2658701D01*
X-45299Y-2800051D01*
X-45299Y-2999949D01*
X+96051Y-3141299D01*
X+295949Y-3141299D01*
X+323000Y-3114248D01*
X+350051Y-3141299D01*
X+549949Y-3141299D01*
X+691299Y-2999949D01*
X+691299Y-2800051D01*
X+549949Y-2658701D01*
X+498547Y-2658701D01*
X+541299Y-2615949D01*
X+541299Y-2416051D01*
X+399949Y-2274701D01*
X+273998Y-2274701D01*
X+273998Y-2204051D01*
X+246947Y-2177000D01*
X+273998Y-2149949D01*
X+273998Y-1950051D01*
X+233558Y-1909611D01*
X+332699Y-1810470D01*
X+332699Y-1741299D01*
X+399949Y-1741299D01*
X+541299Y-1599949D01*
X+541299Y-1400051D01*
X+459208Y-1317961D01*
X+466699Y-1310470D01*
X+466699Y-1089530D01*
X+459868Y-1082699D01*
X+510470Y-1082699D01*
X+567960Y-1025209D01*
X+600051Y-1057299D01*
X+799949Y-1057299D01*
X+850000Y-1007248D01*
X+900051Y-1057299D01*
X+981532Y-1057299D01*
X+949301Y-1089530D01*
X+949301Y-1310470D01*
X+1105530Y-1466699D01*
X+1326470Y-1466699D01*
X+1482699Y-1310470D01*
X+1482699Y-1089530D01*
X+1469149Y-1075981D01*
X+1475980Y-1069150D01*
X+1489530Y-1082699D01*
X+1710470Y-1082699D01*
X+1866699Y-926470D01*
X+1866699Y-841827D01*
X+3670557Y-2645685D01*
X+4366838Y-2645685D01*
X+5362520Y-1650003D01*
X+5362520Y-6250000D01*
X-8132520Y-6250000D01*
X-8132520Y+5142520D01*
X+5362520Y+5142520D01*
X+5362520Y+4686277D01*
G37*
%TD.AperFunction*%
%LPC*%
G36*
X+3140187Y-3697937D02*
X+3140187Y-3929399D01*
X+2976519Y-4093067D01*
X+2745057Y-4093067D01*
X+2581389Y-3929399D01*
X+2581389Y-3697937D01*
X+2745057Y-3534269D01*
X+2976519Y-3534269D01*
X+3140187Y-3697937D01*
G37*
G36*
X+2787127Y-1935009D02*
X+2787127Y-2324287D01*
X+2511867Y-2599547D01*
X+2122589Y-2599547D01*
X+1847329Y-2324287D01*
X+1847329Y-1935009D01*
X+2122589Y-1659749D01*
X+2511867Y-1659749D01*
X+2787127Y-1935009D01*
G37*
G36*
X-5394717Y-3800417D02*
X-5394717Y-4031879D01*
X-5558385Y-4195547D01*
X-5789847Y-4195547D01*
X-5953515Y-4031879D01*
X-5953515Y-3800417D01*
X-5789847Y-3636749D01*
X-5558385Y-3636749D01*
X-5394717Y-3800417D01*
G37*
G36*
X-6481837Y-3800417D02*
X-6481837Y-4031879D01*
X-6645505Y-4195547D01*
X-6876967Y-4195547D01*
X-7040635Y-4031879D01*
X-7040635Y-3800417D01*
X-6876967Y-3636749D01*
X-6645505Y-3636749D01*
X-6481837Y-3800417D01*
G37*
G36*
X-5747777Y-5034689D02*
X-5747777Y-5423967D01*
X-6023037Y-5699227D01*
X-6412315Y-5699227D01*
X-6687575Y-5423967D01*
X-6687575Y-5034689D01*
X-6412315Y-4759429D01*
X-6023037Y-4759429D01*
X-5747777Y-5034689D01*
G37*
G36*
X-5747777Y-2037489D02*
X-5747777Y-2426767D01*
X-6023037Y-2702027D01*
X-6412315Y-2702027D01*
X-6687575Y-2426767D01*
X-6687575Y-2037489D01*
X-6412315Y-1762229D01*
X-6023037Y-1762229D01*
X-5747777Y-2037489D01*
G37*
%LPD*%
%TA.AperFunction,Conductor*%
G36*
X+5000601Y+4257940D02*
X+5000601Y+4153999D01*
X+4310001Y+4153999D01*
X+4310001Y+3646001D01*
X+5000601Y+3646001D01*
X+5000601Y+3629399D01*
X+4355401Y+3629399D01*
X+4355401Y+3583926D01*
X+4253428Y+3685899D01*
X+4252899Y+3685899D01*
X+4252899Y+3686428D01*
X+4126428Y+3812899D01*
X+3947572Y+3812899D01*
X+3821101Y+3686428D01*
X+3821101Y+3507572D01*
X+3858673Y+3470000D01*
X+3821101Y+3432428D01*
X+3821101Y+3323199D01*
X+3764167Y+3323199D01*
X+2924167Y+4163199D01*
X+2040368Y+4163199D01*
X+2186699Y+4309530D01*
X+2186699Y+4510601D01*
X+4747940Y+4510601D01*
X+5000601Y+4257940D01*
G37*
%TD.AperFunction*%
%TA.AperFunction,Conductor*%
G36*
X+2917335Y+3595299D02*
X+2794051Y+3595299D01*
X+2653999Y+3455247D01*
X+2653999Y+3659210D01*
X+2556408Y+3756801D01*
X+2755833Y+3756801D01*
X+2917335Y+3595299D01*
G37*
%TD.AperFunction*%
%TA.AperFunction,Conductor*%
G36*
X+1216001Y+3308790D02*
X+1237791Y+3287000D01*
X+1216001Y+3265210D01*
X+1216001Y+3061247D01*
X+1169949Y+3107299D01*
X+970051Y+3107299D01*
X+875000Y+3012248D01*
X+759949Y+3127299D01*
X+560051Y+3127299D01*
X+469350Y+3036598D01*
X+379949Y+3126000D01*
X+187366Y+3126000D01*
X+291468Y+3230102D01*
X+997469Y+3230102D01*
X+1216001Y+3448634D01*
X+1216001Y+3308790D01*
G37*
%TD.AperFunction*%
%TA.AperFunction,Conductor*%
G36*
X+3595833Y+2916801D02*
X+3828701Y+2916801D01*
X+3828701Y+2800051D01*
X+3903752Y+2725000D01*
X+3828701Y+2649949D01*
X+3828701Y+2450051D01*
X+3970051Y+2308701D01*
X+4169949Y+2308701D01*
X+4311299Y+2450051D01*
X+4311299Y+2649949D01*
X+4236248Y+2725000D01*
X+4311299Y+2800051D01*
X+4311299Y+2999949D01*
X+4264307Y+3046941D01*
X+4355401Y+3138035D01*
X+4355401Y+3070601D01*
X+5000601Y+3070601D01*
X+5000601Y+2979399D01*
X+4361401Y+2979399D01*
X+4361401Y+2420601D01*
X+5000601Y+2420601D01*
X+5000601Y+2399399D01*
X+4361401Y+2399399D01*
X+4361401Y+1840601D01*
X+5000601Y+1840601D01*
X+5000601Y+1829399D01*
X+4361401Y+1829399D01*
X+4361401Y+1270601D01*
X+5000601Y+1270601D01*
X+5000601Y+1229399D01*
X+4357401Y+1229399D01*
X+4357401Y+120601D01*
X+5000601Y+120601D01*
X+5000601Y+79399D01*
X+4357401Y+79399D01*
X+4357401Y-470601D01*
X+4311299Y-470601D01*
X+4311299Y-400051D01*
X+4211248Y-300000D01*
X+4311299Y-199949D01*
X+4311299Y-51D01*
X+4186248Y+125000D01*
X+4311299Y+250051D01*
X+4311299Y+449949D01*
X+4169949Y+591299D01*
X+3970051Y+591299D01*
X+3828701Y+449949D01*
X+3828701Y+250051D01*
X+3953752Y+125000D01*
X+3828701Y-51D01*
X+3828701Y-199949D01*
X+3928752Y-300000D01*
X+3828701Y-400051D01*
X+3828701Y-599949D01*
X+3970051Y-741299D01*
X+4169949Y-741299D01*
X+4281401Y-629847D01*
X+4281401Y-1029399D01*
X+4992599Y-1029399D01*
X+4992599Y-479399D01*
X+5000601Y-479399D01*
X+5000601Y-1221666D01*
X+4135380Y-2086887D01*
X+3902015Y-2086887D01*
X+3776027Y-1960899D01*
X+3872033Y-1960899D01*
X+4072899Y-1760033D01*
X+4072899Y-1475967D01*
X+3960932Y-1364000D01*
X+4072899Y-1252033D01*
X+4072899Y-967967D01*
X+3872033Y-767101D01*
X+3587967Y-767101D01*
X+3553217Y-801851D01*
X+3507199Y-755833D01*
X+3507199Y+1620166D01*
X+3253306Y+1874058D01*
X+3279299Y+1900051D01*
X+3279299Y+2099949D01*
X+3137949Y+2241299D01*
X+2938051Y+2241299D01*
X+2796701Y+2099949D01*
X+2796701Y+2031199D01*
X+1665970Y+2031199D01*
X+1602470Y+2094699D01*
X+1381530Y+2094699D01*
X+1274039Y+1987208D01*
X+1169949Y+2091299D01*
X+970051Y+2091299D01*
X+875000Y+1996248D01*
X+759949Y+2111299D01*
X+560051Y+2111299D01*
X+469350Y+2020598D01*
X+379949Y+2110000D01*
X+180051Y+2110000D01*
X+135649Y+2065598D01*
X+89949Y+2111299D01*
X-109949Y+2111299D01*
X-175000Y+2046248D01*
X-240051Y+2111299D01*
X-439949Y+2111299D01*
X-470000Y+2081248D01*
X-491651Y+2102899D01*
X-691549Y+2102899D01*
X-716600Y+2077848D01*
X-740051Y+2101299D01*
X-866801Y+2101299D01*
X-866801Y+2126639D01*
X-1063730Y+2323568D01*
X-1438241Y+2323568D01*
X-1459673Y+2345000D01*
X-1422101Y+2382572D01*
X-1422101Y+2561428D01*
X-1459673Y+2599000D01*
X-1422101Y+2636572D01*
X-1422101Y+2815428D01*
X-1548572Y+2941899D01*
X-1583531Y+2941899D01*
X-1583531Y+3096001D01*
X-1394790Y+3096001D01*
X-1373000Y+3117791D01*
X-1351210Y+3096001D01*
X-1140790Y+3096001D01*
X-1043199Y+3193592D01*
X-1043199Y+3014049D01*
X-1081299Y+2975949D01*
X-1081299Y+2776051D01*
X-939949Y+2634701D01*
X-740051Y+2634701D01*
X-715001Y+2659751D01*
X-691549Y+2636301D01*
X-491651Y+2636301D01*
X-461600Y+2666352D01*
X-439949Y+2644701D01*
X-240051Y+2644701D01*
X-175000Y+2709752D01*
X-109949Y+2644701D01*
X+89949Y+2644701D01*
X+134350Y+2689102D01*
X+180051Y+2643402D01*
X+379949Y+2643402D01*
X+470649Y+2734102D01*
X+560051Y+2644701D01*
X+759949Y+2644701D01*
X+855000Y+2739752D01*
X+970051Y+2624701D01*
X+1169949Y+2624701D01*
X+1252039Y+2706791D01*
X+1381530Y+2577301D01*
X+1602470Y+2577301D01*
X+1758699Y+2733530D01*
X+1758699Y+2954470D01*
X+1691189Y+3021980D01*
X+1723999Y+3054790D01*
X+1723999Y+3222832D01*
X+1809530Y+3137301D01*
X+2030470Y+3137301D01*
X+2146001Y+3252832D01*
X+2146001Y+3194790D01*
X+2261392Y+3079399D01*
X+1797401Y+3079399D01*
X+1797401Y+2520601D01*
X+2762599Y+2520601D01*
X+2762599Y+2890153D01*
X+2794051Y+2858701D01*
X+2812701Y+2858701D01*
X+2812701Y+2800051D01*
X+2887752Y+2725000D01*
X+2812701Y+2649949D01*
X+2812701Y+2450051D01*
X+2954051Y+2308701D01*
X+3153949Y+2308701D01*
X+3295299Y+2450051D01*
X+3295299Y+2649949D01*
X+3220248Y+2725000D01*
X+3295299Y+2800051D01*
X+3295299Y+2999949D01*
X+3153949Y+3141299D01*
X+3135299Y+3141299D01*
X+3135299Y+3199949D01*
X+3108248Y+3227000D01*
X+3135299Y+3254051D01*
X+3135299Y+3377335D01*
X+3595833Y+2916801D01*
G37*
%TD.AperFunction*%
%LPC*%
G36*
X+4315299Y+1599949D02*
X+4315299Y+1400051D01*
X+4173949Y+1258701D01*
X+3974051Y+1258701D01*
X+3832701Y+1400051D01*
X+3832701Y+1599949D01*
X+3974051Y+1741299D01*
X+4173949Y+1741299D01*
X+4315299Y+1599949D01*
G37*
G36*
X+3812701Y+1900051D02*
X+3812701Y+2099949D01*
X+3954051Y+2241299D01*
X+4153949Y+2241299D01*
X+4295299Y+2099949D01*
X+4295299Y+1900051D01*
X+4153949Y+1758701D01*
X+3954051Y+1758701D01*
X+3812701Y+1900051D01*
G37*
G36*
X+3828701Y+800051D02*
X+3828701Y+999949D01*
X+3970051Y+1141299D01*
X+4169949Y+1141299D01*
X+4311299Y+999949D01*
X+4311299Y+800051D01*
X+4169949Y+658701D01*
X+3970051Y+658701D01*
X+3828701Y+800051D01*
G37*
%LPD*%
%TA.AperFunction,Conductor*%
G36*
X-2615899Y+2636572D02*
X-2578327Y+2599000D01*
X-2615899Y+2561428D01*
X-2615899Y+2382572D01*
X-2578327Y+2345000D01*
X-2615899Y+2307428D01*
X-2615899Y+2128572D01*
X-2578327Y+2091000D01*
X-2615899Y+2053428D01*
X-2615899Y+1874572D01*
X-2578327Y+1837000D01*
X-2615899Y+1799428D01*
X-2615899Y+1620572D01*
X-2578327Y+1583000D01*
X-2615899Y+1545428D01*
X-2615899Y+1495264D01*
X-2889216Y+1768582D01*
X-2889216Y+2538664D01*
X-2615899Y+2811981D01*
X-2615899Y+2636572D01*
G37*
%TD.AperFunction*%
%TA.AperFunction,Conductor*%
G36*
X-845899Y+1599428D02*
X-845899Y+1420572D01*
X-719428Y+1294101D01*
X-540572Y+1294101D01*
X-504000Y+1330673D01*
X-467428Y+1294101D01*
X-288572Y+1294101D01*
X-251000Y+1331673D01*
X-213428Y+1294101D01*
X-34572Y+1294101D01*
X+3000Y+1331673D01*
X+40572Y+1294101D01*
X+219428Y+1294101D01*
X+257000Y+1331673D01*
X+294572Y+1294101D01*
X+473428Y+1294101D01*
X+511000Y+1331673D01*
X+548572Y+1294101D01*
X+727428Y+1294101D01*
X+765000Y+1331673D01*
X+802572Y+1294101D01*
X+981428Y+1294101D01*
X+1019000Y+1331673D01*
X+1056572Y+1294101D01*
X+1235428Y+1294101D01*
X+1273000Y+1331673D01*
X+1310572Y+1294101D01*
X+1489428Y+1294101D01*
X+1527000Y+1331673D01*
X+1564572Y+1294101D01*
X+1743428Y+1294101D01*
X+1781000Y+1331673D01*
X+1818572Y+1294101D01*
X+1997428Y+1294101D01*
X+2035000Y+1331673D01*
X+2072572Y+1294101D01*
X+2251428Y+1294101D01*
X+2289000Y+1331673D01*
X+2326572Y+1294101D01*
X+2505428Y+1294101D01*
X+2543000Y+1331673D01*
X+2580572Y+1294101D01*
X+2759428Y+1294101D01*
X+2841039Y+1375712D01*
X+2958051Y+1258701D01*
X+3100801Y+1258701D01*
X+3100801Y+1141299D01*
X+2954051Y+1141299D01*
X+2857825Y+1045073D01*
X+2812004Y+1090895D01*
X+693529Y+1090895D01*
X+566533Y+963899D01*
X+548572Y+963899D01*
X+511000Y+926327D01*
X+473428Y+963899D01*
X+294572Y+963899D01*
X+257000Y+926327D01*
X+219428Y+963899D01*
X+40572Y+963899D01*
X+3000Y+926327D01*
X-34572Y+963899D01*
X-213428Y+963899D01*
X-251000Y+926327D01*
X-288572Y+963899D01*
X-847899Y+963899D01*
X-847899Y+532101D01*
X-288572Y+532101D01*
X-251000Y+569673D01*
X-213428Y+532101D01*
X-34572Y+532101D01*
X+3000Y+569673D01*
X+40572Y+532101D01*
X+219428Y+532101D01*
X+257000Y+569673D01*
X+294572Y+532101D01*
X+473428Y+532101D01*
X+511000Y+569673D01*
X+548572Y+532101D01*
X+727428Y+532101D01*
X+764999Y+569672D01*
X+802572Y+532101D01*
X+981428Y+532101D01*
X+1019000Y+569673D01*
X+1056572Y+532101D01*
X+1235428Y+532101D01*
X+1273000Y+569673D01*
X+1310572Y+532101D01*
X+1489428Y+532101D01*
X+1527000Y+569673D01*
X+1564572Y+532101D01*
X+1743428Y+532101D01*
X+1781000Y+569673D01*
X+1818572Y+532101D01*
X+1997428Y+532101D01*
X+2035000Y+569673D01*
X+2072572Y+532101D01*
X+2251428Y+532101D01*
X+2289000Y+569673D01*
X+2326572Y+532101D01*
X+2505428Y+532101D01*
X+2543000Y+569673D01*
X+2580572Y+532101D01*
X+2685709Y+532101D01*
X+2685709Y-861075D01*
X+3387101Y-1562467D01*
X+3387101Y-1571973D01*
X+1865729Y-50601D01*
X+1726568Y-50601D01*
X+1866699Y+89530D01*
X+1866699Y+310470D01*
X+1710470Y+466699D01*
X+1489530Y+466699D01*
X+1415039Y+392208D01*
X+1399949Y+407299D01*
X+1200051Y+407299D01*
X+1167000Y+374248D01*
X+1099949Y+441299D01*
X+900051Y+441299D01*
X+850000Y+391248D01*
X+799949Y+441299D01*
X+600051Y+441299D01*
X+567960Y+409208D01*
X+510470Y+466699D01*
X+289530Y+466699D01*
X+240039Y+417208D01*
X+199949Y+457299D01*
X+51Y+457299D01*
X-50000Y+407248D01*
X-100051Y+457299D01*
X-299949Y+457299D01*
X-358000Y+399248D01*
X-400051Y+441299D01*
X-599949Y+441299D01*
X-642000Y+399248D01*
X-700051Y+457299D01*
X-899949Y+457299D01*
X-920040Y+437208D01*
X-989530Y+506699D01*
X-1210470Y+506699D01*
X-1287961Y+429208D01*
X-1300051Y+441299D01*
X-1481335Y+441299D01*
X-866801Y+1055833D01*
X-866801Y+1618701D01*
X-826626Y+1618701D01*
X-845899Y+1599428D01*
G37*
%TD.AperFunction*%
%TA.AperFunction,Conductor*%
G36*
X-2007999Y+3244790D02*
X-1989929Y+3226720D01*
X-1989929Y+1520563D01*
X-1853899Y+1384533D01*
X-1853899Y+986101D01*
X-1631349Y+986101D01*
X-1571307Y+926059D01*
X-1846801Y+650565D01*
X-1846801Y+726167D01*
X-2208654Y+1088019D01*
X-2184101Y+1112572D01*
X-2184101Y+1291428D01*
X-2221673Y+1329000D01*
X-2184101Y+1366572D01*
X-2184101Y+1545428D01*
X-2221673Y+1583000D01*
X-2184101Y+1620572D01*
X-2184101Y+1799428D01*
X-2221673Y+1837000D01*
X-2184101Y+1874572D01*
X-2184101Y+2053428D01*
X-2221673Y+2091000D01*
X-2184101Y+2128572D01*
X-2184101Y+2307428D01*
X-2221673Y+2345000D01*
X-2184101Y+2382572D01*
X-2184101Y+2561428D01*
X-2221673Y+2599000D01*
X-2184101Y+2636572D01*
X-2184101Y+2815428D01*
X-2310572Y+2941899D01*
X-2485981Y+2941899D01*
X-2011079Y+3416801D01*
X-2007999Y+3416801D01*
X-2007999Y+3244790D01*
G37*
%TD.AperFunction*%
%TA.AperFunction,Conductor*%
G36*
X+51Y-25299D02*
X+199949Y-25299D01*
X+224039Y-1209D01*
X+289530Y-66699D01*
X+510470Y-66699D01*
X+567960Y-9209D01*
X+600051Y-41299D01*
X+799949Y-41299D01*
X+850000Y+8752D01*
X+900051Y-41299D01*
X+1099949Y-41299D01*
X+1133000Y-8248D01*
X+1200051Y-75299D01*
X+1394527Y-75299D01*
X+1020601Y-449225D01*
X+1020601Y-574701D01*
X+900051Y-574701D01*
X+850000Y-624752D01*
X+799949Y-574701D01*
X+600051Y-574701D01*
X+567960Y-606792D01*
X+510470Y-549301D01*
X+289530Y-549301D01*
X+240039Y-598792D01*
X+199949Y-558701D01*
X+51Y-558701D01*
X-50000Y-608752D01*
X-100051Y-558701D01*
X-153933Y-558701D01*
X-395232Y-317402D01*
X-1160846Y-317402D01*
X-1436949Y-41299D01*
X-1300051Y-41299D01*
X-1247961Y+10791D01*
X-1210470Y-26699D01*
X-989530Y-26699D01*
X-944040Y+18791D01*
X-899949Y-25299D01*
X-700051Y-25299D01*
X-658000Y+16752D01*
X-599949Y-41299D01*
X-400051Y-41299D01*
X-342000Y+16752D01*
X-299949Y-25299D01*
X-100051Y-25299D01*
X-50000Y+24752D01*
X+51Y-25299D01*
G37*
%TD.AperFunction*%
%TA.AperFunction,Conductor*%
G36*
X-2253199Y+557833D02*
X-2253199Y+311299D01*
X-2403949Y+311299D01*
X-2545299Y+169949D01*
X-2545299Y-29949D01*
X-2436209Y-139040D01*
X-2546699Y-249530D01*
X-2546699Y-470470D01*
X-2390470Y-626699D01*
X-2169530Y-626699D01*
X-2013301Y-470470D01*
X-2013301Y-249530D01*
X-2091532Y-171299D01*
X-1950051Y-171299D01*
X-1915867Y-137115D01*
X-1516055Y-536925D01*
X-1576941Y-597811D01*
X-1600051Y-574701D01*
X-1799949Y-574701D01*
X-1941299Y-716051D01*
X-1941299Y-915949D01*
X-1799949Y-1057299D01*
X-1679399Y-1057299D01*
X-1679399Y-1075730D01*
X-1466428Y-1288701D01*
X-1593949Y-1288701D01*
X-1735299Y-1430051D01*
X-1735299Y-1629949D01*
X-1724647Y-1640601D01*
X-1917402Y-1640601D01*
X-1917402Y-1560051D01*
X-1953103Y-1524351D01*
X-1878701Y-1449949D01*
X-1878701Y-1250051D01*
X-1998752Y-1130000D01*
X-1948701Y-1079949D01*
X-1948701Y-880051D01*
X-2090051Y-738701D01*
X-2289949Y-738701D01*
X-2431299Y-880051D01*
X-2431299Y-1079949D01*
X-2311248Y-1200000D01*
X-2361299Y-1250051D01*
X-2361299Y-1449949D01*
X-2325599Y-1485650D01*
X-2400000Y-1560051D01*
X-2400000Y-1640601D01*
X-2933402Y-1640601D01*
X-2933402Y-1560051D01*
X-2969103Y-1524351D01*
X-2894701Y-1449949D01*
X-2894701Y-1250051D01*
X-3014752Y-1130000D01*
X-2964701Y-1079949D01*
X-2964701Y-880051D01*
X-3106051Y-738701D01*
X-3305949Y-738701D01*
X-3447299Y-880051D01*
X-3447299Y-1079949D01*
X-3327248Y-1200000D01*
X-3377299Y-1250051D01*
X-3377299Y-1449949D01*
X-3341599Y-1485650D01*
X-3416000Y-1560051D01*
X-3416000Y-1640601D01*
X-3717588Y-1640601D01*
X-3863748Y-1494441D01*
X-4116252Y-1494441D01*
X-4200601Y-1578790D01*
X-4200601Y-335729D01*
X-2970602Y+894270D01*
X-2970602Y+1125730D01*
X-3094668Y+1249796D01*
X-3019915Y+1324549D01*
X-2253199Y+557833D01*
G37*
%TD.AperFunction*%
%LPC*%
G36*
X-3562699Y-470470D02*
X-3562699Y-249530D01*
X-3406470Y-93301D01*
X-3185530Y-93301D01*
X-3029301Y-249530D01*
X-3029301Y-470470D01*
X-3185530Y-626699D01*
X-3406470Y-626699D01*
X-3562699Y-470470D01*
G37*
%LPD*%
%TA.AperFunction,Conductor*%
G36*
X-305210Y-1657999D02*
X-200699Y-1657999D01*
X-200699Y-1810470D01*
X-177868Y-1833301D01*
X-344470Y-1833301D01*
X-377307Y-1866138D01*
X-377307Y-1585902D01*
X-305210Y-1657999D01*
G37*
%TD.AperFunction*%
%TA.AperFunction,Conductor*%
G36*
X-462015Y-3957351D02*
X-402499Y-4016867D01*
X-125299Y-4016867D01*
X-125299Y-4149949D01*
X-68209Y-4207040D01*
X-200699Y-4339530D01*
X-200699Y-4560470D01*
X-200568Y-4560601D01*
X-607939Y-4560601D01*
X-670601Y-4497939D01*
X-670601Y-4334269D01*
X-756811Y-4248059D01*
X-658701Y-4149949D01*
X-658701Y-3950051D01*
X-800051Y-3808701D01*
X-967453Y-3808701D01*
X-858701Y-3699949D01*
X-858701Y-3560665D01*
X-462015Y-3957351D01*
G37*
%TD.AperFunction*%
D10*
X-1638000Y+1456000D02*
X-1786730Y+1604730D01*
X-1786730Y+3317270D01*
X-1754000Y+3350000D01*
X-2050000Y+70000D02*
X-2050000Y+642000D01*
X-3092415Y+1684415D01*
D11*
X-3990000Y-2800000D02*
X-2880000Y-2800000D01*
X-2541249Y-2461249D01*
X-1544751Y-2461249D01*
D10*
X-1050000Y-5450000D02*
X-2350000Y-4150000D01*
X-2350000Y-3680000D01*
X-2534000Y-3496000D01*
X-2700000Y-3496000D01*
X-3586211Y-3496276D02*
X-2700276Y-3496276D01*
X-2700000Y-3496000D01*
D11*
X-1496000Y-2890000D02*
X-1496000Y-3904000D01*
X-950000Y-4450000D01*
X-1496000Y-2890000D02*
X-1496000Y-2510000D01*
X-1508000Y-2498000D01*
X-1544751Y-2461249D01*
X-1400000Y-816000D02*
X-1400000Y-960001D01*
X-1180001Y-1180000D01*
X-656706Y-1180000D01*
X-656706Y-1966705D01*
X-1188001Y-2498000D01*
X-1508000Y-2498000D01*
D10*
X-5085000Y+889000D02*
X-3742830Y+889000D01*
X-3092415Y+1539415D01*
X-3092415Y+1684415D01*
D11*
X-3990000Y-2299620D02*
X-3940000Y-2249620D01*
X-3610380Y-1920000D01*
X-1430000Y-1920000D01*
X-1250000Y-2100000D01*
X-3990000Y-2299620D02*
X-4280380Y-2299620D01*
X-4480000Y-2100000D01*
X-4480000Y-220000D01*
X-3250000Y+1010000D01*
D10*
X-3092415Y+2622831D02*
X-3092415Y+1684415D01*
X-1638000Y+1964000D02*
X-1481631Y+2120369D01*
X-1147897Y+2120369D01*
X-1070000Y+2042472D01*
X-1070000Y+1140000D01*
X-1865002Y+344998D01*
X-1865002Y+99388D01*
X-1245013Y-520601D01*
X-479399Y-520601D01*
X-200000Y-800000D01*
X-840000Y+2876000D02*
X-840000Y+3280000D01*
X-1180000Y+3620000D01*
X-2095246Y+3620000D01*
X-3092415Y+2622831D01*
X-340000Y+2886000D02*
X+207301Y+3433301D01*
X+913302Y+3433301D01*
X+1440001Y+3960000D01*
X+2840000Y+3960000D01*
X+3680000Y+3120000D01*
X+4050000Y+3120000D01*
X+4178227Y+3248227D01*
X+4178227Y+3455773D01*
X+4164000Y+3470000D01*
X+3730000Y-1110000D02*
X+3574000Y-1110000D01*
X+3304000Y-840000D01*
X+3304000Y+1535999D01*
X+3011999Y+1828000D01*
X+1492000Y+1828000D01*
D11*
X-3247493Y+3514000D02*
X-3247493Y+3877525D01*
X-3247493Y+3514000D02*
X-3247493Y+3262507D01*
X-3250000Y+3260000D01*
X-4520000Y+3844000D02*
X-3281018Y+3844000D01*
X-3247493Y+3877525D01*
D10*
X+3730000Y-1618000D02*
X+2888908Y-776908D01*
X+2888908Y+726625D01*
X+2727837Y+887696D01*
X+777696Y+887696D01*
X+638000Y+748000D01*
D11*
X+1300000Y-850000D02*
X+1300000Y-564954D01*
X+1534954Y-330000D01*
X+1750000Y-330000D01*
X+3786286Y-2366286D01*
X+4251109Y-2366286D01*
X+5280000Y-1337395D01*
X+5280000Y+4373669D01*
X+4863669Y+4790000D01*
X-2335018Y+4790000D01*
X-3247493Y+3877525D01*
D10*
X-1242000Y-2890000D02*
X-318332Y-3813668D01*
X+1773668Y-3813668D01*
D11*
X-950000Y-4450000D02*
X-950000Y-4613668D01*
X-723668Y-4840000D01*
X+2030380Y-4840000D01*
X+2317228Y-5126848D01*
D12*
X-3586211Y-3496276D03*
D10*
X+5362520Y+4686277D02*
X+4979398Y+5069399D01*
X-2450747Y+5069399D01*
X-3363222Y+4156924D01*
X-3363224Y+4156924D01*
X-3396749Y+4123399D01*
X-4266001Y+4123399D01*
X-4266001Y+4203210D01*
X-4414790Y+4351999D01*
X-4625210Y+4351999D01*
X-4773999Y+4203210D01*
X-4773999Y+3992790D01*
X-4770170Y+3988960D01*
X-4799399Y+3959731D01*
X-4799399Y+3728269D01*
X-4635731Y+3564601D01*
X-3526892Y+3564601D01*
X-3526892Y+3378236D01*
X-3529398Y+3375730D01*
X-3529398Y+3144270D01*
X-3365730Y+2980602D01*
X-3134270Y+2980602D01*
X-2968094Y+3146778D01*
X-2968094Y+3761796D01*
X-2219289Y+4510601D01*
X+1653301Y+4510601D01*
X+1653301Y+4309530D01*
X+1799632Y+4163199D01*
X+1355834Y+4163199D01*
X+829135Y+3636500D01*
X+123134Y+3636500D01*
X-386067Y+3127299D01*
X-439949Y+3127299D01*
X-470000Y+3097248D01*
X-491651Y+3118899D01*
X-636801Y+3118899D01*
X-636801Y+3364167D01*
X-1095833Y+3823199D01*
X-2179413Y+3823199D01*
X-3295614Y+2706999D01*
X-3295614Y+1623582D01*
X-3826997Y+1092199D01*
X-4422600Y+1092199D01*
X-4422600Y+3158126D01*
X-4511874Y+3247400D01*
X-7208126Y+3247400D01*
X-7297400Y+3158126D01*
X-7297400Y+71874D01*
X-7208126Y-17400D01*
X-4672528Y-17400D01*
X-4759399Y-104271D01*
X-4759399Y-2215729D01*
X-4396109Y-2579019D01*
X-4200070Y-2579019D01*
X-4294799Y-2673748D01*
X-4294799Y-2926252D01*
X-4116252Y-3104799D01*
X-3863748Y-3104799D01*
X-3838348Y-3079399D01*
X-2764271Y-3079399D01*
X-2425520Y-2740648D01*
X-2003999Y-2740648D01*
X-2003999Y-2863674D01*
X-2060572Y-2807101D01*
X-2239428Y-2807101D01*
X-2365899Y-2933572D01*
X-2365899Y-2934101D01*
X-2366428Y-2934101D01*
X-2492899Y-3060572D01*
X-2492899Y-3239428D01*
X-2490326Y-3242001D01*
X-2953999Y-3242001D01*
X-2953999Y-3293077D01*
X-3670379Y-3293077D01*
X-3789410Y-3412108D01*
X-3789410Y-3580444D01*
X-3670379Y-3699475D01*
X-2953999Y-3699475D01*
X-2953999Y-4257999D01*
X-2529368Y-4257999D01*
X-2434167Y-4353199D01*
X-1291299Y-5496067D01*
X-1291299Y-5549949D01*
X-1149949Y-5691299D01*
X-950051Y-5691299D01*
X-808701Y-5549949D01*
X-808701Y-5350051D01*
X-817453Y-5341299D01*
X-700051Y-5341299D01*
X-558701Y-5199949D01*
X-558701Y-5119399D01*
X-25299Y-5119399D01*
X-25299Y-5199949D01*
X+51752Y-5277000D01*
X-21299Y-5350051D01*
X-21299Y-5549949D01*
X+120051Y-5691299D01*
X+319949Y-5691299D01*
X+461299Y-5549949D01*
X+461299Y-5350051D01*
X+384248Y-5273000D01*
X+457299Y-5199949D01*
X+457299Y-5119399D01*
X+1847329Y-5119399D01*
X+1847329Y-5321487D01*
X+2122589Y-5596747D01*
X+2511867Y-5596747D01*
X+2787127Y-5321487D01*
X+2787127Y-4932209D01*
X+2511867Y-4656949D01*
X+2242457Y-4656949D01*
X+2146109Y-4560601D01*
X+332568Y-4560601D01*
X+332699Y-4560470D01*
X+332699Y-4339530D01*
X+250208Y-4257040D01*
X+357299Y-4149949D01*
X+357299Y-4016867D01*
X+1581737Y-4016867D01*
X+1657937Y-4093067D01*
X+1889399Y-4093067D01*
X+2053067Y-3929399D01*
X+2053067Y-3697937D01*
X+1889399Y-3534269D01*
X+1657937Y-3534269D01*
X+1581737Y-3610469D01*
X+157299Y-3610469D01*
X+157299Y-3500051D01*
X+122248Y-3465000D01*
X+157299Y-3429949D01*
X+157299Y-3230051D01*
X+15949Y-3088701D01*
X-183949Y-3088701D01*
X-325299Y-3230051D01*
X-325299Y-3429949D01*
X-290248Y-3465000D01*
X-325299Y-3500051D01*
X-325299Y-3519335D01*
X-988001Y-2856634D01*
X-988001Y-2693128D01*
X-953999Y-2659126D01*
X-953999Y-2755210D01*
X-805210Y-2903999D01*
X-594790Y-2903999D01*
X-573000Y-2882209D01*
X-551210Y-2903999D01*
X-340790Y-2903999D01*
X-192001Y-2755210D01*
X-192001Y-2544790D01*
X-340790Y-2396001D01*
X-551210Y-2396001D01*
X-573000Y-2417791D01*
X-594790Y-2396001D01*
X-690874Y-2396001D01*
X-500699Y-2205826D01*
X-500699Y-2210470D01*
X-344470Y-2366699D01*
X-208600Y-2366699D01*
X-208600Y-2403949D01*
X-67250Y-2545299D01*
X+58701Y-2545299D01*
X+58701Y-2615949D01*
X+101453Y-2658701D01*
X+96051Y-2658701D01*
X-45299Y-2800051D01*
X-45299Y-2999949D01*
X+96051Y-3141299D01*
X+295949Y-3141299D01*
X+323000Y-3114248D01*
X+350051Y-3141299D01*
X+549949Y-3141299D01*
X+691299Y-2999949D01*
X+691299Y-2800051D01*
X+549949Y-2658701D01*
X+498547Y-2658701D01*
X+541299Y-2615949D01*
X+541299Y-2416051D01*
X+399949Y-2274701D01*
X+273998Y-2274701D01*
X+273998Y-2204051D01*
X+246947Y-2177000D01*
X+273998Y-2149949D01*
X+273998Y-1950051D01*
X+233558Y-1909611D01*
X+332699Y-1810470D01*
X+332699Y-1741299D01*
X+399949Y-1741299D01*
X+541299Y-1599949D01*
X+541299Y-1400051D01*
X+459208Y-1317961D01*
X+466699Y-1310470D01*
X+466699Y-1089530D01*
X+459868Y-1082699D01*
X+510470Y-1082699D01*
X+567960Y-1025209D01*
X+600051Y-1057299D01*
X+799949Y-1057299D01*
X+850000Y-1007248D01*
X+900051Y-1057299D01*
X+981532Y-1057299D01*
X+949301Y-1089530D01*
X+949301Y-1310470D01*
X+1105530Y-1466699D01*
X+1326470Y-1466699D01*
X+1482699Y-1310470D01*
X+1482699Y-1089530D01*
X+1469149Y-1075981D01*
X+1475980Y-1069150D01*
X+1489530Y-1082699D01*
X+1710470Y-1082699D01*
X+1866699Y-926470D01*
X+1866699Y-841827D01*
X+3670557Y-2645685D01*
X+4366838Y-2645685D01*
X+5362520Y-1650003D01*
X+5362520Y-6250000D01*
X-8132520Y-6250000D01*
X-8132520Y+5142520D01*
X+5362520Y+5142520D01*
X+5362520Y+4686277D01*
X+3140187Y-3697937D02*
X+3140187Y-3929399D01*
X+2976519Y-4093067D01*
X+2745057Y-4093067D01*
X+2581389Y-3929399D01*
X+2581389Y-3697937D01*
X+2745057Y-3534269D01*
X+2976519Y-3534269D01*
X+3140187Y-3697937D01*
X+2787127Y-1935009D02*
X+2787127Y-2324287D01*
X+2511867Y-2599547D01*
X+2122589Y-2599547D01*
X+1847329Y-2324287D01*
X+1847329Y-1935009D01*
X+2122589Y-1659749D01*
X+2511867Y-1659749D01*
X+2787127Y-1935009D01*
X-5394717Y-3800417D02*
X-5394717Y-4031879D01*
X-5558385Y-4195547D01*
X-5789847Y-4195547D01*
X-5953515Y-4031879D01*
X-5953515Y-3800417D01*
X-5789847Y-3636749D01*
X-5558385Y-3636749D01*
X-5394717Y-3800417D01*
X-6481837Y-3800417D02*
X-6481837Y-4031879D01*
X-6645505Y-4195547D01*
X-6876967Y-4195547D01*
X-7040635Y-4031879D01*
X-7040635Y-3800417D01*
X-6876967Y-3636749D01*
X-6645505Y-3636749D01*
X-6481837Y-3800417D01*
X-5747777Y-5034689D02*
X-5747777Y-5423967D01*
X-6023037Y-5699227D01*
X-6412315Y-5699227D01*
X-6687575Y-5423967D01*
X-6687575Y-5034689D01*
X-6412315Y-4759429D01*
X-6023037Y-4759429D01*
X-5747777Y-5034689D01*
X-5747777Y-2037489D02*
X-5747777Y-2426767D01*
X-6023037Y-2702027D01*
X-6412315Y-2702027D01*
X-6687575Y-2426767D01*
X-6687575Y-2037489D01*
X-6412315Y-1762229D01*
X-6023037Y-1762229D01*
X-5747777Y-2037489D01*
X+5000601Y+4257940D02*
X+5000601Y+4153999D01*
X+4310001Y+4153999D01*
X+4310001Y+3646001D01*
X+5000601Y+3646001D01*
X+5000601Y+3629399D01*
X+4355401Y+3629399D01*
X+4355401Y+3583926D01*
X+4253428Y+3685899D01*
X+4252899Y+3685899D01*
X+4252899Y+3686428D01*
X+4126428Y+3812899D01*
X+3947572Y+3812899D01*
X+3821101Y+3686428D01*
X+3821101Y+3507572D01*
X+3858673Y+3470000D01*
X+3821101Y+3432428D01*
X+3821101Y+3323199D01*
X+3764167Y+3323199D01*
X+2924167Y+4163199D01*
X+2040368Y+4163199D01*
X+2186699Y+4309530D01*
X+2186699Y+4510601D01*
X+4747940Y+4510601D01*
X+5000601Y+4257940D01*
X+2917335Y+3595299D02*
X+2794051Y+3595299D01*
X+2653999Y+3455247D01*
X+2653999Y+3659210D01*
X+2556408Y+3756801D01*
X+2755833Y+3756801D01*
X+2917335Y+3595299D01*
X+1216001Y+3308790D02*
X+1237791Y+3287000D01*
X+1216001Y+3265210D01*
X+1216001Y+3061247D01*
X+1169949Y+3107299D01*
X+970051Y+3107299D01*
X+875000Y+3012248D01*
X+759949Y+3127299D01*
X+560051Y+3127299D01*
X+469350Y+3036598D01*
X+379949Y+3126000D01*
X+187366Y+3126000D01*
X+291468Y+3230102D01*
X+997469Y+3230102D01*
X+1216001Y+3448634D01*
X+1216001Y+3308790D01*
X+3595833Y+2916801D02*
X+3828701Y+2916801D01*
X+3828701Y+2800051D01*
X+3903752Y+2725000D01*
X+3828701Y+2649949D01*
X+3828701Y+2450051D01*
X+3970051Y+2308701D01*
X+4169949Y+2308701D01*
X+4311299Y+2450051D01*
X+4311299Y+2649949D01*
X+4236248Y+2725000D01*
X+4311299Y+2800051D01*
X+4311299Y+2999949D01*
X+4264307Y+3046941D01*
X+4355401Y+3138035D01*
X+4355401Y+3070601D01*
X+5000601Y+3070601D01*
X+5000601Y+2979399D01*
X+4361401Y+2979399D01*
X+4361401Y+2420601D01*
X+5000601Y+2420601D01*
X+5000601Y+2399399D01*
X+4361401Y+2399399D01*
X+4361401Y+1840601D01*
X+5000601Y+1840601D01*
X+5000601Y+1829399D01*
X+4361401Y+1829399D01*
X+4361401Y+1270601D01*
X+5000601Y+1270601D01*
X+5000601Y+1229399D01*
X+4357401Y+1229399D01*
X+4357401Y+120601D01*
X+5000601Y+120601D01*
X+5000601Y+79399D01*
X+4357401Y+79399D01*
X+4357401Y-470601D01*
X+4311299Y-470601D01*
X+4311299Y-400051D01*
X+4211248Y-300000D01*
X+4311299Y-199949D01*
X+4311299Y-51D01*
X+4186248Y+125000D01*
X+4311299Y+250051D01*
X+4311299Y+449949D01*
X+4169949Y+591299D01*
X+3970051Y+591299D01*
X+3828701Y+449949D01*
X+3828701Y+250051D01*
X+3953752Y+125000D01*
X+3828701Y-51D01*
X+3828701Y-199949D01*
X+3928752Y-300000D01*
X+3828701Y-400051D01*
X+3828701Y-599949D01*
X+3970051Y-741299D01*
X+4169949Y-741299D01*
X+4281401Y-629847D01*
X+4281401Y-1029399D01*
X+4992599Y-1029399D01*
X+4992599Y-479399D01*
X+5000601Y-479399D01*
X+5000601Y-1221666D01*
X+4135380Y-2086887D01*
X+3902015Y-2086887D01*
X+3776027Y-1960899D01*
X+3872033Y-1960899D01*
X+4072899Y-1760033D01*
X+4072899Y-1475967D01*
X+3960932Y-1364000D01*
X+4072899Y-1252033D01*
X+4072899Y-967967D01*
X+3872033Y-767101D01*
X+3587967Y-767101D01*
X+3553217Y-801851D01*
X+3507199Y-755833D01*
X+3507199Y+1620166D01*
X+3253306Y+1874058D01*
X+3279299Y+1900051D01*
X+3279299Y+2099949D01*
X+3137949Y+2241299D01*
X+2938051Y+2241299D01*
X+2796701Y+2099949D01*
X+2796701Y+2031199D01*
X+1665970Y+2031199D01*
X+1602470Y+2094699D01*
X+1381530Y+2094699D01*
X+1274039Y+1987208D01*
X+1169949Y+2091299D01*
X+970051Y+2091299D01*
X+875000Y+1996248D01*
X+759949Y+2111299D01*
X+560051Y+2111299D01*
X+469350Y+2020598D01*
X+379949Y+2110000D01*
X+180051Y+2110000D01*
X+135649Y+2065598D01*
X+89949Y+2111299D01*
X-109949Y+2111299D01*
X-175000Y+2046248D01*
X-240051Y+2111299D01*
X-439949Y+2111299D01*
X-470000Y+2081248D01*
X-491651Y+2102899D01*
X-691549Y+2102899D01*
X-716600Y+2077848D01*
X-740051Y+2101299D01*
X-866801Y+2101299D01*
X-866801Y+2126639D01*
X-1063730Y+2323568D01*
X-1438241Y+2323568D01*
X-1459673Y+2345000D01*
X-1422101Y+2382572D01*
X-1422101Y+2561428D01*
X-1459673Y+2599000D01*
X-1422101Y+2636572D01*
X-1422101Y+2815428D01*
X-1548572Y+2941899D01*
X-1583531Y+2941899D01*
X-1583531Y+3096001D01*
X-1394790Y+3096001D01*
X-1373000Y+3117791D01*
X-1351210Y+3096001D01*
X-1140790Y+3096001D01*
X-1043199Y+3193592D01*
X-1043199Y+3014049D01*
X-1081299Y+2975949D01*
X-1081299Y+2776051D01*
X-939949Y+2634701D01*
X-740051Y+2634701D01*
X-715001Y+2659751D01*
X-691549Y+2636301D01*
X-491651Y+2636301D01*
X-461600Y+2666352D01*
X-439949Y+2644701D01*
X-240051Y+2644701D01*
X-175000Y+2709752D01*
X-109949Y+2644701D01*
X+89949Y+2644701D01*
X+134350Y+2689102D01*
X+180051Y+2643402D01*
X+379949Y+2643402D01*
X+470649Y+2734102D01*
X+560051Y+2644701D01*
X+759949Y+2644701D01*
X+855000Y+2739752D01*
X+970051Y+2624701D01*
X+1169949Y+2624701D01*
X+1252039Y+2706791D01*
X+1381530Y+2577301D01*
X+1602470Y+2577301D01*
X+1758699Y+2733530D01*
X+1758699Y+2954470D01*
X+1691189Y+3021980D01*
X+1723999Y+3054790D01*
X+1723999Y+3222832D01*
X+1809530Y+3137301D01*
X+2030470Y+3137301D01*
X+2146001Y+3252832D01*
X+2146001Y+3194790D01*
X+2261392Y+3079399D01*
X+1797401Y+3079399D01*
X+1797401Y+2520601D01*
X+2762599Y+2520601D01*
X+2762599Y+2890153D01*
X+2794051Y+2858701D01*
X+2812701Y+2858701D01*
X+2812701Y+2800051D01*
X+2887752Y+2725000D01*
X+2812701Y+2649949D01*
X+2812701Y+2450051D01*
X+2954051Y+2308701D01*
X+3153949Y+2308701D01*
X+3295299Y+2450051D01*
X+3295299Y+2649949D01*
X+3220248Y+2725000D01*
X+3295299Y+2800051D01*
X+3295299Y+2999949D01*
X+3153949Y+3141299D01*
X+3135299Y+3141299D01*
X+3135299Y+3199949D01*
X+3108248Y+3227000D01*
X+3135299Y+3254051D01*
X+3135299Y+3377335D01*
X+3595833Y+2916801D01*
X+4315299Y+1599949D02*
X+4315299Y+1400051D01*
X+4173949Y+1258701D01*
X+3974051Y+1258701D01*
X+3832701Y+1400051D01*
X+3832701Y+1599949D01*
X+3974051Y+1741299D01*
X+4173949Y+1741299D01*
X+4315299Y+1599949D01*
X+3812701Y+1900051D02*
X+3812701Y+2099949D01*
X+3954051Y+2241299D01*
X+4153949Y+2241299D01*
X+4295299Y+2099949D01*
X+4295299Y+1900051D01*
X+4153949Y+1758701D01*
X+3954051Y+1758701D01*
X+3812701Y+1900051D01*
X+3828701Y+800051D02*
X+3828701Y+999949D01*
X+3970051Y+1141299D01*
X+4169949Y+1141299D01*
X+4311299Y+999949D01*
X+4311299Y+800051D01*
X+4169949Y+658701D01*
X+3970051Y+658701D01*
X+3828701Y+800051D01*
X-2615899Y+2636572D02*
X-2578327Y+2599000D01*
X-2615899Y+2561428D01*
X-2615899Y+2382572D01*
X-2578327Y+2345000D01*
X-2615899Y+2307428D01*
X-2615899Y+2128572D01*
X-2578327Y+2091000D01*
X-2615899Y+2053428D01*
X-2615899Y+1874572D01*
X-2578327Y+1837000D01*
X-2615899Y+1799428D01*
X-2615899Y+1620572D01*
X-2578327Y+1583000D01*
X-2615899Y+1545428D01*
X-2615899Y+1495264D01*
X-2889216Y+1768582D01*
X-2889216Y+2538664D01*
X-2615899Y+2811981D01*
X-2615899Y+2636572D01*
X-845899Y+1599428D02*
X-845899Y+1420572D01*
X-719428Y+1294101D01*
X-540572Y+1294101D01*
X-504000Y+1330673D01*
X-467428Y+1294101D01*
X-288572Y+1294101D01*
X-251000Y+1331673D01*
X-213428Y+1294101D01*
X-34572Y+1294101D01*
X+3000Y+1331673D01*
X+40572Y+1294101D01*
X+219428Y+1294101D01*
X+257000Y+1331673D01*
X+294572Y+1294101D01*
X+473428Y+1294101D01*
X+511000Y+1331673D01*
X+548572Y+1294101D01*
X+727428Y+1294101D01*
X+765000Y+1331673D01*
X+802572Y+1294101D01*
X+981428Y+1294101D01*
X+1019000Y+1331673D01*
X+1056572Y+1294101D01*
X+1235428Y+1294101D01*
X+1273000Y+1331673D01*
X+1310572Y+1294101D01*
X+1489428Y+1294101D01*
X+1527000Y+1331673D01*
X+1564572Y+1294101D01*
X+1743428Y+1294101D01*
X+1781000Y+1331673D01*
X+1818572Y+1294101D01*
X+1997428Y+1294101D01*
X+2035000Y+1331673D01*
X+2072572Y+1294101D01*
X+2251428Y+1294101D01*
X+2289000Y+1331673D01*
X+2326572Y+1294101D01*
X+2505428Y+1294101D01*
X+2543000Y+1331673D01*
X+2580572Y+1294101D01*
X+2759428Y+1294101D01*
X+2841039Y+1375712D01*
X+2958051Y+1258701D01*
X+3100801Y+1258701D01*
X+3100801Y+1141299D01*
X+2954051Y+1141299D01*
X+2857825Y+1045073D01*
X+2812004Y+1090895D01*
X+693529Y+1090895D01*
X+566533Y+963899D01*
X+548572Y+963899D01*
X+511000Y+926327D01*
X+473428Y+963899D01*
X+294572Y+963899D01*
X+257000Y+926327D01*
X+219428Y+963899D01*
X+40572Y+963899D01*
X+3000Y+926327D01*
X-34572Y+963899D01*
X-213428Y+963899D01*
X-251000Y+926327D01*
X-288572Y+963899D01*
X-847899Y+963899D01*
X-847899Y+532101D01*
X-288572Y+532101D01*
X-251000Y+569673D01*
X-213428Y+532101D01*
X-34572Y+532101D01*
X+3000Y+569673D01*
X+40572Y+532101D01*
X+219428Y+532101D01*
X+257000Y+569673D01*
X+294572Y+532101D01*
X+473428Y+532101D01*
X+511000Y+569673D01*
X+548572Y+532101D01*
X+727428Y+532101D01*
X+764999Y+569672D01*
X+802572Y+532101D01*
X+981428Y+532101D01*
X+1019000Y+569673D01*
X+1056572Y+532101D01*
X+1235428Y+532101D01*
X+1273000Y+569673D01*
X+1310572Y+532101D01*
X+1489428Y+532101D01*
X+1527000Y+569673D01*
X+1564572Y+532101D01*
X+1743428Y+532101D01*
X+1781000Y+569673D01*
X+1818572Y+532101D01*
X+1997428Y+532101D01*
X+2035000Y+569673D01*
X+2072572Y+532101D01*
X+2251428Y+532101D01*
X+2289000Y+569673D01*
X+2326572Y+532101D01*
X+2505428Y+532101D01*
X+2543000Y+569673D01*
X+2580572Y+532101D01*
X+2685709Y+532101D01*
X+2685709Y-861075D01*
X+3387101Y-1562467D01*
X+3387101Y-1571973D01*
X+1865729Y-50601D01*
X+1726568Y-50601D01*
X+1866699Y+89530D01*
X+1866699Y+310470D01*
X+1710470Y+466699D01*
X+1489530Y+466699D01*
X+1415039Y+392208D01*
X+1399949Y+407299D01*
X+1200051Y+407299D01*
X+1167000Y+374248D01*
X+1099949Y+441299D01*
X+900051Y+441299D01*
X+850000Y+391248D01*
X+799949Y+441299D01*
X+600051Y+441299D01*
X+567960Y+409208D01*
X+510470Y+466699D01*
X+289530Y+466699D01*
X+240039Y+417208D01*
X+199949Y+457299D01*
X+51Y+457299D01*
X-50000Y+407248D01*
X-100051Y+457299D01*
X-299949Y+457299D01*
X-358000Y+399248D01*
X-400051Y+441299D01*
X-599949Y+441299D01*
X-642000Y+399248D01*
X-700051Y+457299D01*
X-899949Y+457299D01*
X-920040Y+437208D01*
X-989530Y+506699D01*
X-1210470Y+506699D01*
X-1287961Y+429208D01*
X-1300051Y+441299D01*
X-1481335Y+441299D01*
X-866801Y+1055833D01*
X-866801Y+1618701D01*
X-826626Y+1618701D01*
X-845899Y+1599428D01*
X-2007999Y+3244790D02*
X-1989929Y+3226720D01*
X-1989929Y+1520563D01*
X-1853899Y+1384533D01*
X-1853899Y+986101D01*
X-1631349Y+986101D01*
X-1571307Y+926059D01*
X-1846801Y+650565D01*
X-1846801Y+726167D01*
X-2208654Y+1088019D01*
X-2184101Y+1112572D01*
X-2184101Y+1291428D01*
X-2221673Y+1329000D01*
X-2184101Y+1366572D01*
X-2184101Y+1545428D01*
X-2221673Y+1583000D01*
X-2184101Y+1620572D01*
X-2184101Y+1799428D01*
X-2221673Y+1837000D01*
X-2184101Y+1874572D01*
X-2184101Y+2053428D01*
X-2221673Y+2091000D01*
X-2184101Y+2128572D01*
X-2184101Y+2307428D01*
X-2221673Y+2345000D01*
X-2184101Y+2382572D01*
X-2184101Y+2561428D01*
X-2221673Y+2599000D01*
X-2184101Y+2636572D01*
X-2184101Y+2815428D01*
X-2310572Y+2941899D01*
X-2485981Y+2941899D01*
X-2011079Y+3416801D01*
X-2007999Y+3416801D01*
X-2007999Y+3244790D01*
X+51Y-25299D02*
X+199949Y-25299D01*
X+224039Y-1209D01*
X+289530Y-66699D01*
X+510470Y-66699D01*
X+567960Y-9209D01*
X+600051Y-41299D01*
X+799949Y-41299D01*
X+850000Y+8752D01*
X+900051Y-41299D01*
X+1099949Y-41299D01*
X+1133000Y-8248D01*
X+1200051Y-75299D01*
X+1394527Y-75299D01*
X+1020601Y-449225D01*
X+1020601Y-574701D01*
X+900051Y-574701D01*
X+850000Y-624752D01*
X+799949Y-574701D01*
X+600051Y-574701D01*
X+567960Y-606792D01*
X+510470Y-549301D01*
X+289530Y-549301D01*
X+240039Y-598792D01*
X+199949Y-558701D01*
X+51Y-558701D01*
X-50000Y-608752D01*
X-100051Y-558701D01*
X-153933Y-558701D01*
X-395232Y-317402D01*
X-1160846Y-317402D01*
X-1436949Y-41299D01*
X-1300051Y-41299D01*
X-1247961Y+10791D01*
X-1210470Y-26699D01*
X-989530Y-26699D01*
X-944040Y+18791D01*
X-899949Y-25299D01*
X-700051Y-25299D01*
X-658000Y+16752D01*
X-599949Y-41299D01*
X-400051Y-41299D01*
X-342000Y+16752D01*
X-299949Y-25299D01*
X-100051Y-25299D01*
X-50000Y+24752D01*
X+51Y-25299D01*
X-2253199Y+557833D02*
X-2253199Y+311299D01*
X-2403949Y+311299D01*
X-2545299Y+169949D01*
X-2545299Y-29949D01*
X-2436209Y-139040D01*
X-2546699Y-249530D01*
X-2546699Y-470470D01*
X-2390470Y-626699D01*
X-2169530Y-626699D01*
X-2013301Y-470470D01*
X-2013301Y-249530D01*
X-2091532Y-171299D01*
X-1950051Y-171299D01*
X-1915867Y-137115D01*
X-1516055Y-536925D01*
X-1576941Y-597811D01*
X-1600051Y-574701D01*
X-1799949Y-574701D01*
X-1941299Y-716051D01*
X-1941299Y-915949D01*
X-1799949Y-1057299D01*
X-1679399Y-1057299D01*
X-1679399Y-1075730D01*
X-1466428Y-1288701D01*
X-1593949Y-1288701D01*
X-1735299Y-1430051D01*
X-1735299Y-1629949D01*
X-1724647Y-1640601D01*
X-1917402Y-1640601D01*
X-1917402Y-1560051D01*
X-1953103Y-1524351D01*
X-1878701Y-1449949D01*
X-1878701Y-1250051D01*
X-1998752Y-1130000D01*
X-1948701Y-1079949D01*
X-1948701Y-880051D01*
X-2090051Y-738701D01*
X-2289949Y-738701D01*
X-2431299Y-880051D01*
X-2431299Y-1079949D01*
X-2311248Y-1200000D01*
X-2361299Y-1250051D01*
X-2361299Y-1449949D01*
X-2325599Y-1485650D01*
X-2400000Y-1560051D01*
X-2400000Y-1640601D01*
X-2933402Y-1640601D01*
X-2933402Y-1560051D01*
X-2969103Y-1524351D01*
X-2894701Y-1449949D01*
X-2894701Y-1250051D01*
X-3014752Y-1130000D01*
X-2964701Y-1079949D01*
X-2964701Y-880051D01*
X-3106051Y-738701D01*
X-3305949Y-738701D01*
X-3447299Y-880051D01*
X-3447299Y-1079949D01*
X-3327248Y-1200000D01*
X-3377299Y-1250051D01*
X-3377299Y-1449949D01*
X-3341599Y-1485650D01*
X-3416000Y-1560051D01*
X-3416000Y-1640601D01*
X-3717588Y-1640601D01*
X-3863748Y-1494441D01*
X-4116252Y-1494441D01*
X-4200601Y-1578790D01*
X-4200601Y-335729D01*
X-2970602Y+894270D01*
X-2970602Y+1125730D01*
X-3094668Y+1249796D01*
X-3019915Y+1324549D01*
X-2253199Y+557833D01*
X-3562699Y-470470D02*
X-3562699Y-249530D01*
X-3406470Y-93301D01*
X-3185530Y-93301D01*
X-3029301Y-249530D01*
X-3029301Y-470470D01*
X-3185530Y-626699D01*
X-3406470Y-626699D01*
X-3562699Y-470470D01*
X-305210Y-1657999D02*
X-200699Y-1657999D01*
X-200699Y-1810470D01*
X-177868Y-1833301D01*
X-344470Y-1833301D01*
X-377307Y-1866138D01*
X-377307Y-1585902D01*
X-305210Y-1657999D01*
X-462015Y-3957351D02*
X-402499Y-4016867D01*
X-125299Y-4016867D01*
X-125299Y-4149949D01*
X-68209Y-4207040D01*
X-200699Y-4339530D01*
X-200699Y-4560470D01*
X-200568Y-4560601D01*
X-607939Y-4560601D01*
X-670601Y-4497939D01*
X-670601Y-4334269D01*
X-756811Y-4248059D01*
X-658701Y-4149949D01*
X-658701Y-3950051D01*
X-800051Y-3808701D01*
X-967453Y-3808701D01*
X-858701Y-3699949D01*
X-858701Y-3560665D01*
X-462015Y-3957351D01*
X-200000Y-1607199D02*
X-200000Y-1404000D01*
X+1146000Y+582901D02*
X+1146000Y+748000D01*
X+1654000Y+1344901D02*
X+1654000Y+1510000D01*
X+4764000Y-978599D02*
X+4764000Y-750000D01*
X+4941799Y-750000D02*
X+4764000Y-750000D01*
X+4840000Y+1178599D02*
X+4840000Y+950000D01*
X+4840000Y+171401D02*
X+4840000Y+400000D01*
X+4840000Y+28599D02*
X+4840000Y-200000D01*
X+4844000Y+1321401D02*
X+4844000Y+1550000D01*
X+4844000Y+1778599D02*
X+4844000Y+1550000D01*
X+4844000Y+1891401D02*
X+4844000Y+2120000D01*
X+4844000Y+2348599D02*
X+4844000Y+2120000D01*
X+4844000Y+2471401D02*
X+4844000Y+2700000D01*
X+4844000Y+2928599D02*
X+4844000Y+2700000D01*
X+4838000Y+3121401D02*
X+4838000Y+3350000D01*
X+4838000Y+3578599D02*
X+4838000Y+3350000D01*
X+1600000Y-1031899D02*
X+1600000Y-816000D01*
X+400000Y-600101D02*
X+400000Y-816000D01*
X-10000Y+2695501D02*
X-10000Y+2886000D01*
X+1000000Y-625501D02*
X+1000000Y-816000D01*
X-1700000Y-625501D02*
X-1700000Y-816000D01*
X-1700000Y-1006499D02*
X-1700000Y-816000D01*
X-1890499Y-816000D02*
X-1700000Y-816000D01*
X+1070000Y+2675501D02*
X+1070000Y+2866000D01*
X+1070000Y+3056499D02*
X+1070000Y+2866000D01*
X-149899Y-1700000D02*
X+66000Y-1700000D01*
X-700000Y-2853199D02*
X-700000Y-2650000D01*
X-1684499Y-1530000D02*
X-1494000Y-1530000D01*
X-1494000Y-1339501D02*
X-1494000Y-1530000D01*
X+1000101Y-1200000D02*
X+1216000Y-1200000D01*
X+1431899Y-1200000D02*
X+1216000Y-1200000D01*
X+1216000Y-1415899D02*
X+1216000Y-1200000D01*
X+640499Y-2900000D02*
X+450000Y-2900000D01*
X+450000Y-3090499D02*
X+450000Y-2900000D01*
X+32699Y-2494499D02*
X+32699Y-2304000D01*
X-1472901Y+2726000D02*
X-1638000Y+2726000D01*
X-2400000Y+2891099D02*
X-2400000Y+2726000D01*
X-2234901Y+2726000D02*
X-2400000Y+2726000D01*
X-2565099Y+2726000D02*
X-2400000Y+2726000D01*
X-2234901Y+2472000D02*
X-2400000Y+2472000D01*
X-2565099Y+2472000D02*
X-2400000Y+2472000D01*
X-2234901Y+1710000D02*
X-2400000Y+1710000D01*
X-2565099Y+1710000D02*
X-2400000Y+1710000D01*
X+1266801Y+3160000D02*
X+1470000Y+3160000D01*
X+1673199Y+3160000D02*
X+1470000Y+3160000D01*
X+2280000Y+2571401D02*
X+2280000Y+2800000D01*
X+2894000Y+3544499D02*
X+2894000Y+3354000D01*
X+3084499Y+3354000D02*
X+2894000Y+3354000D01*
X+2603199Y+3554000D02*
X+2400000Y+3554000D01*
X+2196801Y+3554000D02*
X+2400000Y+3554000D01*
X-3015501Y-980000D02*
X-3206000Y-980000D01*
X-3396499Y-980000D02*
X-3206000Y-980000D01*
X-3206000Y-789501D02*
X-3206000Y-980000D01*
X+3089387Y-3813668D02*
X+2860788Y-3813668D01*
X+2632189Y-3813668D02*
X+2860788Y-3813668D01*
X+2860788Y-3585069D02*
X+2860788Y-3813668D01*
X+2860788Y-4042267D02*
X+2860788Y-3813668D01*
X-149899Y-4450000D02*
X+66000Y-4450000D01*
X+281899Y-4450000D02*
X+66000Y-4450000D01*
X+29501Y-5450000D02*
X+220000Y-5450000D01*
X+410499Y-5450000D02*
X+220000Y-5450000D01*
X+220000Y-5640499D02*
X+220000Y-5450000D01*
X-2495899Y-360000D02*
X-2280000Y-360000D01*
X-2064101Y-360000D02*
X-2280000Y-360000D01*
X-2280000Y-575899D02*
X-2280000Y-360000D01*
X-4520000Y+4301199D02*
X-4520000Y+4098000D01*
X-4723199Y+4098000D02*
X-4520000Y+4098000D01*
X-2494499Y+70000D02*
X-2304000Y+70000D01*
X-2304000Y+260499D02*
X-2304000Y+70000D01*
X+3871901Y+3343000D02*
X+4037000Y+3343000D01*
X-5445517Y-3916148D02*
X-5674116Y-3916148D01*
X-5902715Y-3916148D02*
X-5674116Y-3916148D01*
X-5674116Y-3687549D02*
X-5674116Y-3916148D01*
X-5674116Y-4144747D02*
X-5674116Y-3916148D01*
D13*
X-200000Y-1404000D03*
X-200000Y-1150000D03*
D14*
X-632000Y+748000D03*
D15*
X-378000Y+748000D03*
X-124000Y+748000D03*
X+130000Y+748000D03*
X+384000Y+748000D03*
X+638000Y+748000D03*
X+892000Y+748000D03*
X+1146000Y+748000D03*
X+1400000Y+748000D03*
X+1654000Y+748000D03*
X+1908000Y+748000D03*
X+2162000Y+748000D03*
X+2416000Y+748000D03*
X+2670000Y+748000D03*
X+2670000Y+1510000D03*
X+2416000Y+1510000D03*
X+2162000Y+1510000D03*
X+1908000Y+1510000D03*
X+1654000Y+1510000D03*
X+1400000Y+1510000D03*
X+1146000Y+1510000D03*
X+892000Y+1510000D03*
X+638000Y+1510000D03*
X+384000Y+1510000D03*
X+130000Y+1510000D03*
X-124000Y+1510000D03*
X-378000Y+1510000D03*
X-630000Y+1510000D03*
D16*
X+4510000Y-750000D03*
X+4764000Y-750000D03*
X+4586000Y+950000D03*
X+4840000Y+950000D03*
X+4586000Y+400000D03*
X+4840000Y+400000D03*
X+4586000Y-200000D03*
X+4840000Y-200000D03*
X+4590000Y+1550000D03*
X+4844000Y+1550000D03*
X+4590000Y+2120000D03*
X+4844000Y+2120000D03*
X+4590000Y+2700000D03*
X+4844000Y+2700000D03*
X+4584000Y+3350000D03*
X+4838000Y+3350000D03*
D17*
X+3054000Y-500000D03*
X+4070000Y-500000D03*
X+3054000Y-100000D03*
X+4070000Y-100000D03*
X+3054000Y+350000D03*
X+4070000Y+350000D03*
X+4074000Y+1500000D03*
X+3058000Y+1500000D03*
X+3038000Y+2000000D03*
X+4054000Y+2000000D03*
X+3054000Y+2550000D03*
X+4070000Y+2550000D03*
X+3054000Y+2900000D03*
X+4070000Y+2900000D03*
X+3054000Y+900000D03*
X+4070000Y+900000D03*
X+1300000Y-850000D03*
X+1300000Y+166000D03*
X-800000Y-800000D03*
X-800000Y+216000D03*
X-200000Y-800000D03*
X-200000Y+216000D03*
X+100000Y-800000D03*
X+100000Y+216000D03*
X+280000Y+2884701D03*
X+280000Y+1868701D03*
X+700000Y-816000D03*
X+700000Y+200000D03*
X-1400000Y-816000D03*
X-1400000Y+200000D03*
X+660000Y+2886000D03*
X+660000Y+1870000D03*
D18*
X+1600000Y-816000D03*
X+1600000Y+200000D03*
X-1100000Y-776000D03*
X-1100000Y+240000D03*
D17*
X-500000Y+200000D03*
X-500000Y-816000D03*
D18*
X+400000Y-816000D03*
X+400000Y+200000D03*
D17*
X-10000Y+1870000D03*
X-10000Y+2886000D03*
X+1000000Y+200000D03*
X+1000000Y-816000D03*
X-1700000Y+200000D03*
X-1700000Y-816000D03*
X+1070000Y+1850000D03*
X+1070000Y+2866000D03*
D18*
X+66000Y-1700000D03*
X-950000Y-1700000D03*
X-1250000Y-2100000D03*
X-234000Y-2100000D03*
D17*
X-84000Y-3330000D03*
X-1100000Y-3330000D03*
X-84000Y-3600000D03*
X-1100000Y-3600000D03*
D13*
X-700000Y-2650000D03*
X-446000Y-2650000D03*
D17*
X+300000Y-1500000D03*
X+300000Y-2516000D03*
X-1240000Y-1530000D03*
X-1494000Y-1530000D03*
D18*
X+1216000Y-1200000D03*
X+200000Y-1200000D03*
D17*
X+196000Y-2900000D03*
X+450000Y-2900000D03*
X+32699Y-2050000D03*
X+32699Y-2304000D03*
D14*
X-1638000Y+1202000D03*
D15*
X-1638000Y+1456000D03*
X-1638000Y+1710000D03*
X-1638000Y+1964000D03*
X-1638000Y+2218000D03*
X-1638000Y+2472000D03*
X-1638000Y+2726000D03*
X-2400000Y+2726000D03*
X-2400000Y+2472000D03*
X-2400000Y+2218000D03*
X-2400000Y+1964000D03*
X-2400000Y+1710000D03*
X-2400000Y+1456000D03*
X-2400000Y+1202000D03*
D18*
X+1492000Y+1828000D03*
X+1492000Y+2844000D03*
X+1920000Y+4420000D03*
X+1920000Y+3404000D03*
D13*
X+1470000Y+3414000D03*
X+1470000Y+3160000D03*
D16*
X+2026000Y+2800000D03*
X+2280000Y+2800000D03*
X+2534000Y+2800000D03*
D17*
X+2894000Y+3354000D03*
X+2894000Y+3100000D03*
D13*
X+2400000Y+3300000D03*
X+2400000Y+3554000D03*
D17*
X-3136000Y-1350000D03*
X-2120000Y-1350000D03*
D15*
X-2150000Y-3023000D03*
X-2277000Y-3150000D03*
X-2150000Y-3277000D03*
D17*
X-2158701Y-1660000D03*
X-3174701Y-1660000D03*
D19*
X-1750000Y-2890000D03*
X-1496000Y-2890000D03*
X-1242000Y-2890000D03*
D17*
X-2190000Y-980000D03*
X-3206000Y-980000D03*
D70*
X+2860788Y-3813668D03*
X+1773668Y-3813668D03*
D71*
X+2317228Y-5126848D03*
X+2317228Y-2129648D03*
D17*
X+116000Y-4050000D03*
X-900000Y-4050000D03*
D18*
X+66000Y-4450000D03*
X-950000Y-4450000D03*
D20*
X-3990000Y-2800000D03*
X-3990000Y-2299620D03*
X-3990000Y-1799240D03*
D15*
X-1910000Y-3994000D03*
X-1783000Y-3867000D03*
X-1910000Y-3740000D03*
D17*
X-800000Y-5100000D03*
X+216000Y-5100000D03*
D19*
X-2700000Y-4004000D03*
X-2700000Y-3750000D03*
X-2700000Y-3496000D03*
D17*
X-1050000Y-5450000D03*
X+220000Y-5450000D03*
D18*
X-2280000Y-360000D03*
X-3296000Y-360000D03*
D17*
X-1400000Y+1350000D03*
X-1400000Y+1096000D03*
X-591600Y+2877600D03*
X-591600Y+1861600D03*
D13*
X-1754000Y+3350000D03*
X-1500000Y+3350000D03*
X-1246000Y+3350000D03*
D18*
X-3250000Y+1010000D03*
X-3250000Y+3260000D03*
D13*
X-4520000Y+3844000D03*
X-4520000Y+4098000D03*
D17*
X-2304000Y+70000D03*
X-2050000Y+70000D03*
X-840000Y+2876000D03*
X-840000Y+1860000D03*
D19*
X+4564000Y+3900000D03*
X+4818000Y+3900000D03*
D15*
X+4037000Y+3343000D03*
X+4164000Y+3470000D03*
X+4037000Y+3597000D03*
D17*
X-340000Y+1870000D03*
X-340000Y+2886000D03*
D21*
X+3730000Y-1618000D03*
X+3730000Y-1110000D03*
D13*
X-6975000Y+455000D03*
X-6975000Y+709000D03*
D17*
X-6325000Y+2715000D03*
X-5309000Y+2715000D03*
X-5309000Y+1975000D03*
X-6325000Y+1975000D03*
X-5345000Y+2455000D03*
X-6361000Y+2455000D03*
X-6775000Y+2445000D03*
X-6775000Y+1429000D03*
D14*
X-5847000Y+1143000D03*
D15*
X-5847000Y+889000D03*
X-5847000Y+635000D03*
X-5085000Y+635000D03*
X-5085000Y+889000D03*
X-5085000Y+1143000D03*
D70*
X-5674116Y-3916148D03*
X-6761236Y-3916148D03*
D71*
X-6217676Y-5229328D03*
X-6217676Y-2232128D03*
D22*
X-8290000Y-6520000D02*
X+5520000Y-6520000D01*
X+5520000Y+5300000D01*
X-8290000Y+5300000D01*
X-8290000Y-6520000D01*
M02*
